<svg width="306" height="49" viewBox="0 0 306 49" fill="none" xmlns="http://www.w3.org/2000/svg">
<g clip-path="url(#clip0_1_323)">
<mask id="mask0_1_323" style="mask-type:luminance" maskUnits="userSpaceOnUse" x="0" y="7" width="19" height="38">
<path d="M0 12.4698H0.41139V13.1888H0V12.4698ZM13.4141 30.0365V30.2289H13.1968L12.9796 30.0365H12.7854L12.9796 29.3863L12.7854 28.017L12.9796 27.0095L12.7854 25.3014H13.1968L13.8255 25.828L14.8701 25.6357V25.828L15.0643 25.6357H15.2815L15.4988 25.828H15.6929L15.9102 25.6357V25.828L16.1274 25.6357H16.3215L17.1721 25.828V25.6357L17.3662 25.828H18.2167V22.0775L18.4108 21.908L18.2167 21.7157V21.5463L18.4108 20.7036L18.2167 20.5342H17.9995L16.5434 20.7036L16.3262 20.5342H16.132L15.9148 20.7036H15.6975L15.0689 20.5342L14.0242 20.7036V20.5342L12.7854 20.8456L12.9796 20.6991V20.3373L12.7854 20.1678L12.9796 20.0259V13.5139C12.9796 13.3536 13.4742 13.0651 14.4587 12.6484C14.4587 12.9827 14.8701 13.1521 15.6975 13.1521V13.0102L18.2213 13.5139L18.4155 13.3445V12.6484L17.7868 11.9752V9.9557L18.0041 8.22467L15.2861 7.91327L14.4634 8.08271L14.2461 7.91327H14.0289L13.4233 8.08271L12.3787 7.91327L12.1614 8.08271H11.9442L11.75 7.91327H11.3155V8.08271L8.16308 7.91327H5.22789L5.03375 7.72093H4.8165L4.59924 7.91327V9.9557L4.8165 10.4594L4.59924 11.3021V20.0259L4.40511 21.8989L4.59924 22.5721L4.40511 22.714V23.2178H4.59924L4.18786 30.0182L3.99372 30.2106H3.55921L3.36508 29.3679L3.14782 29.5099H2.95369L2.73644 29.3679H2.51918V29.8717L3.78109 30.8792H4.82574V31.2409C4.27568 31.2409 4.00296 33.178 4.00296 37.0568C3.74411 37.0568 3.60082 37.6796 3.56846 38.9298L3.78571 39.0718L3.56846 39.9373V41.6683L3.37432 43.1841L3.56846 43.6878L3.78571 43.4955H4.00296L5.24175 43.6878L6.50366 43.1841C6.50366 43.4406 7.27097 43.6649 8.80559 43.8573V43.6878L9.04595 43.8573H11.3248L12.5867 44.1916L12.8039 44.0221V43.8527L12.5867 43.349H12.8039C14.0473 43.9077 15.092 44.2465 15.9333 44.3564L17.1952 43.8527V43.4909L16.7607 42.8407L17.1952 40.1021V39.7907C17.1952 39.2321 16.7745 38.7741 15.9333 38.4215L15.3046 38.7558L14.26 38.5635H12.5867L12.3925 38.4215H12.1753L12.3925 38.2521V38.0597C12.3925 36.6676 12.5959 34.9594 12.9981 32.9399L12.8039 32.4133L13.4326 30.0091L13.4141 30.0365ZM2.50069 26.3821V26.5241L2.9352 26.8126L3.12934 26.3821H2.50069ZM3.35121 26.8126L3.54535 27.2431H3.97985V26.8126H3.35121ZM4.39586 33.2788H4.59V33.5673H3.98447L4.39586 33.2788ZM4.39586 31.1173H5.0245V31.2867L4.59 31.5752L4.39586 31.4058V31.1173ZM5.0245 34.4328V34.7213H4.39586V34.5519L5.0245 34.4328ZM4.59 30.5632H4.80725L5.21864 30.8517H4.59V30.5632ZM5.21864 25.3747L5.65314 25.8326L5.43589 25.9517H5.21864L4.80725 25.6632L5.21864 25.3747ZM5.84728 11.6043H6.06453L6.47592 11.8928C5.92586 12.0851 5.65314 12.3324 5.65314 12.6392H5.21864L5.0245 11.8928L5.21864 12.0622H5.43589C5.43589 11.76 5.57456 11.6043 5.84728 11.6043ZM5.43589 15.2083H5.65314L5.43589 15.3274V15.4968L5.84728 15.7853V15.9044H5.43589L5.0245 15.6159V15.4968L5.43589 15.2083ZM5.0245 24.7977H5.65314L5.21864 25.0862H5.0245V24.7977ZM6.26329 9.90075C6.91042 10.0931 7.2571 10.2854 7.30795 10.4778L5.8519 10.7663L5.22326 10.1892V10.0702H5.8519V10.3358H6.06915L6.26329 9.90532V9.90075ZM5.8519 8.19261V8.33458L5.44051 8.62308V8.45364L5.8519 8.18803V8.19261ZM5.44051 27.5362L5.8519 27.8247V27.9437H5.44051V27.5362ZM6.06915 24.6786H6.26329L7.11381 25.2556L6.70242 26.0982H6.48517L5.85653 25.6678V25.5487C6.27716 25.5487 6.48517 25.4525 6.48517 25.2602V25.0907L6.07378 24.6832L6.06915 24.6786ZM7.11381 26.9592H7.30795L7.74245 27.2477V27.3667H7.30795L7.11381 27.2477H6.89656L6.70242 27.3667V27.2477L7.11381 26.9592ZM7.93659 17.8049V17.9468L7.5252 18.2124H7.30795L7.93659 17.8049ZM7.93659 15.6159H8.15384L7.93659 16.3852L7.5252 16.0738V15.9044L7.93659 15.6159ZM9.66073 22.3935L9.03209 22.9705L8.56985 22.682L8.37571 22.801H8.15846L7.94121 22.682V22.5125L9.66535 22.3935H9.66073ZM7.93659 34.8404H8.15384L8.56523 35.1289V35.2983L7.93659 35.1289V34.8404ZM8.37109 14.7504H8.56523V15.2083H8.15384L8.37109 14.7504ZM8.15384 25.0816H8.56523V25.9471L8.15384 25.6586V25.0816ZM8.37109 27.5316H8.56523L9.2216 27.9392H8.7871L8.37571 27.6507V27.5316H8.37109ZM8.78248 19.0734H9.02284V19.6504H8.78248V19.0734ZM8.78248 23.52H10.0675L9.6561 23.8085H9.2216L8.7871 23.52H8.78248ZM9.6561 25.5395L10.0675 25.828L10.4789 25.5395H10.6961V25.9471L10.2616 26.2356C10.2616 26.0433 10.0582 25.9471 9.6561 25.9471L9.02746 26.0936L8.7871 25.9471V25.828L9.66073 25.5395H9.6561ZM9.6561 27.0782H10.7008V27.5362L10.4835 27.3667H10.2663L9.66073 27.6552H9.22622L9.66073 27.0782H9.6561ZM9.43885 17.6583H9.6561V18.2124H9.43885V17.6583ZM10.4835 27.6552H10.8949L10.2663 28.1132V28.2322H9.44347L10.4881 27.6552H10.4835ZM9.85486 21.8164H10.4835L10.7008 22.3935L10.4835 22.5125H10.2663L9.85486 22.224V21.8164ZM9.85486 32.2713H10.2663V32.4407L9.85486 32.7292V32.2713ZM11.1168 32.7292H11.3109L10.7054 33.1368V32.9949L11.1168 32.7292ZM12.5728 27.0828H13.2015V27.5407C12.7161 27.5407 12.3694 27.6369 12.1568 27.8292L11.5282 27.6598L11.3109 27.8292L10.8995 27.3713L12.5728 27.0828ZM11.5282 21.244L11.9395 21.5325H11.1168L11.5282 21.244ZM11.1168 34.7259H11.7454L11.5282 35.1335L11.1168 34.8449V34.7259ZM11.7454 13.3399H11.9395V13.6284H11.3109L11.7454 13.3399ZM11.3109 36.7225H11.7454L12.1568 37.011V37.1301H11.9395L11.3109 37.011V36.7225ZM11.5282 28.2414H12.3787V28.4108H11.5282V28.2414ZM11.9395 24.8068H12.5682L12.1568 25.0953H11.9395V24.8068ZM14.2415 25.3838L14.6529 25.6723V25.8418H14.2415V25.3838ZM14.6529 43.2162V43.7199H14.2415V43.5276L14.6529 43.2162ZM17.3708 18.391H17.7822L17.5881 18.5101V18.6795L17.7822 19.0871L17.5881 19.2565H17.7822C17.6528 19.6412 17.2414 19.8335 16.5434 19.8335V19.6641C17.0935 19.3115 17.3662 18.8856 17.3662 18.391H17.3708ZM17.3708 20.9647H17.7822L17.1767 21.5417L16.9594 21.3722V21.2532L17.3708 20.9647ZM18.2213 15.5106L18.0041 15.9181H18.4155V15.5106H18.2213Z" fill="white"/>
</mask>
<g mask="url(#mask0_1_323)">
<path d="M308.223 -1.47458H-1.93677V50.731H308.223V-1.47458Z" fill="url(#paint0_linear_1_323)"/>
</g>
<mask id="mask1_1_323" style="mask-type:luminance" maskUnits="userSpaceOnUse" x="28" y="7" width="22" height="38">
<path d="M30.5954 24.9671V18.4322H30.8357L31.1038 18.6704V18.2124L30.8357 18.0201L31.1038 17.782H30.5954V15.5472L30.8357 15.3091H31.1038L30.8357 15.5472L31.1038 16.6508V17.1088L30.8357 17.324H31.3442V16.8661H31.6123L31.8064 17.5621H32.0514L32.3195 17.3194H32.5599C33.2209 17.7362 33.5537 18.1025 33.5537 18.4231H33.7709L34.039 18.2079L33.7709 18.0155L34.039 17.3194V17.1042H33.5537L33.3364 17.3194L33.7709 16.6463H34.039L34.2794 16.8615H34.5475L35.3009 15.538V15.2999H34.7925L34.5521 15.538L34.0437 15.0801C34.1407 14.4893 34.3903 14.1917 34.7971 14.1917V13.949L34.5567 13.7337L34.2886 13.949H34.0483L33.7802 13.7337H33.5629V13.949L33.7802 14.1917H33.3457L33.0776 13.949V14.4069H33.5629V14.6222C32.9019 14.6222 32.5691 14.7733 32.5691 15.0801H32.3288L32.0607 14.842H31.3581L31.1177 15.0801V14.842H30.8496L30.6092 15.0801L30.1008 9.69925V9.46112L30.3458 9.24589H30.1008V9.05355L30.3458 8.81084V8.59561L30.1008 8.35748L30.3458 8.14224L31.8249 8.81542H32.0699V7.6843L32.338 7.89953L32.5784 7.6843H32.8465L33.0868 7.89953L32.8465 8.13766L33.3549 8.59561H33.5722C33.5722 7.98654 33.8172 7.6843 34.2979 7.6843H34.566L34.8063 7.89953L36.2855 7.6843H38.2731L38.005 8.35748L38.2731 9.24589V11.2654L38.5135 18.0201L38.2731 18.2124L38.5135 18.4277V24.7244L38.7816 24.9625L38.5135 25.1778H39.0219L38.7769 26.3089V26.9821H38.2685L38.0004 26.7668V26.9821L36.7893 26.5241H36.549V26.7622L36.7893 26.9775V28.7818L36.549 28.9741L37.0574 32.1202C37.0574 36.1593 37.4596 38.1742 38.2685 38.1742H39.7245L39.9926 37.9361L39.7245 27.4125C40.2422 27.4125 40.5011 27.2706 40.5011 26.9821H40.7461L41.0142 27.1744H41.7168V25.828L41.4995 25.6128H41.7168L41.4995 24.5092V20.4701H41.9849V19.7969H41.4995L41.2314 14.1963V7.89953L41.7168 7.44159H48.9184L49.1588 7.67972L48.9184 7.89495L49.1588 9.45654V16.6417L49.4269 16.8569H49.1588L49.6441 18.8765V23.3964L49.4269 24.9579L49.6441 25.8235V27.6278L49.4269 27.8705L49.6441 28.0857V28.9741L43.9447 27.6278V27.8705L42.4887 27.4125L41.4949 27.6278V27.8705L47.6565 28.9741V31.905L47.8969 32.1202H47.6565L48.1649 34.1626V38.394C48.1649 39.9007 47.9939 40.6517 47.6565 40.6517C47.6565 41.8057 46.5101 42.7674 44.2128 43.5367C39.7985 43.7474 37.1545 43.9764 36.2809 44.2328L32.5691 43.7749C30.2718 43.7749 29.1255 40.9402 29.1255 35.2663V35.0281H28.617L29.1255 34.355V33.9245L28.8851 33.7093H29.1255L28.617 29.4321L28.8851 29.1893L28.617 28.9741V25.1778L30.6046 24.9625L30.5954 24.9671ZM29.1162 25.3747H30.0869V25.1823H29.1162V25.3747ZM30.3273 9.70841V9.92365H30.8357L30.5954 10.1618L31.1038 10.835L32.5599 10.377L32.0514 11.2654V11.4807H32.828L33.0683 11.2654C33.0683 10.835 33.3041 10.6151 33.7709 10.6151V10.1572C33.1423 10.1572 32.3334 9.79084 31.3442 9.05355H31.1038L30.8357 9.24589L30.5954 9.05355L30.3273 9.70383V9.70841ZM31.3442 25.8326H32.3149V25.6174H31.3442V25.8326ZM31.8064 18.4322L31.6123 19.1283C31.6123 19.5771 31.7556 19.8015 32.0468 19.8015L32.5553 19.3436V19.1283H32.0468L31.8018 19.3436L32.0468 18.6704L32.3149 18.8856H32.5553L32.8233 18.6704H33.0637L33.3318 18.8856V18.2124H31.6077L31.8018 18.4277L31.8064 18.4322ZM33.0683 12.4011H33.3364L33.5537 12.1859L33.0683 11.7279H32.828L33.0683 12.4011ZM33.5537 16.0051V16.2204L32.828 16.4127V16.0051H33.5537ZM40.4918 27.6369H41.4856V27.4217H40.4918V27.6369ZM42.7244 17.1134L42.4841 17.3286V17.5713L42.7244 17.7865L43.2098 17.3286V17.1134H42.7244Z" fill="white"/>
</mask>
<g mask="url(#mask1_1_323)">
<path d="M308.223 -3.7643H-1.93677V48.4413H308.223V-3.7643Z" fill="url(#paint1_linear_1_323)"/>
</g>
<mask id="mask2_1_323" style="mask-type:luminance" maskUnits="userSpaceOnUse" x="55" y="7" width="21" height="39">
<path d="M55.2464 43.7108H55.7317L55.9028 44.6953H55.7317L55.2464 43.7108ZM57.405 44.5534H57.6731L58.0845 44.7961H57.9643L57.5298 44.7228V44.7961L57.4097 44.7228H57.2664C56.989 44.7228 56.855 44.8007 56.855 44.9655H56.7117L56.4205 44.7961V44.7228L57.4143 44.5534H57.405ZM56.9705 44.9609H57.1138L57.5252 45.0571V45.1304H56.9659V44.9609H56.9705ZM57.1138 45.2265H57.8164L57.405 45.4647L57.1138 45.2952V45.222V45.2265ZM67.7869 7.78505V13.0697C68.5958 13.0697 69.6728 12.2363 71.0133 10.5694H71.6419V11.6501C71.6419 12.0027 70.9485 12.4744 69.5572 13.0697V13.7429L67.5188 15.4968V16.1929C68.3739 15.2495 69.266 14.7733 70.1859 14.7733L70.4771 15.1579V15.4922L70.1859 15.854L70.4771 16.1883C69.6682 16.1883 69.266 16.5409 69.266 17.2462H68.6836L68.3924 16.8844H68.0781L68.3924 17.2462V17.9651L67.7869 16.5226V16.8844H67.5188V16.5226L67.7869 16.834C67.2044 16.834 66.9132 17.6583 66.9132 19.3115L67.2275 19.6458L66.622 24.1382L66.9132 24.5L66.3308 25.1961L66.9132 25.9151L66.3308 28.0079V33.2467L65.7253 32.5736V29.3771L65.4341 26.2539L65.7253 25.1961C65.337 25.1961 65.1429 24.8435 65.1429 24.1382L65.4341 23.8268L65.1429 21.3997L65.3832 21.0379C64.9949 18.4277 64.7222 14.8282 64.5604 10.2488L64.2692 9.19094L64.5604 8.13309L64.2692 7.77131H57.2109C57.405 11.5036 57.7933 13.372 58.3757 13.372H58.6669V13.7337C58.0984 13.7337 57.8164 13.9673 57.8164 14.4298V15.4877L58.3757 16.5455L58.0845 16.8798L58.6669 19.6687L58.0845 21.8073H58.6669V22.1187L58.3757 22.4805V22.8423H59.2956V23.1765H58.6669V23.5108L58.9813 25.2877L58.6669 25.622L59.2956 26.318L58.9813 26.7027L59.2956 27.0141V28.7909C59.2956 30.6639 59.5868 32.885 60.1692 35.4494L59.878 35.7608L60.4604 39.2916H60.1692C60.1692 40.6837 60.8487 41.3844 62.2077 41.3844L63.3956 41.7462L63.6637 41.3844H65.4341L65.7253 41.7462H66.0627V41.0501H66.622L66.9132 41.3844H67.2275L67.7869 40.6654L68.0781 41.7462H67.5188V42.4422H67.7869L68.6836 41.7462L68.9979 42.0805V41.7462L68.0781 40.354H69.5572V40.6654H68.9979V41.3844H69.266L70.7221 41.0501L71.0133 41.3844L71.6419 38.5726L71.3507 37.1805L72.1735 34.7305L71.6419 34.0344C71.9978 33.6177 72.289 31.8729 72.5155 28.7955H72.1781L73.1257 25.9837L72.8114 24.9259L73.685 19.6641H73.3938L74.2905 15.1442L73.9762 14.0864L74.2905 13.7246H74.5817L74.2905 13.3628L75.141 7.76216L74.8498 7.42786L74.5817 7.76216L71.6465 7.42786L67.7915 7.76216L67.7869 7.78505ZM58.2324 44.8877H58.3757V45.0571H57.9643L58.2324 44.8877ZM58.2556 44.7915H58.7178V45.0571H58.5745L58.2602 44.7915H58.2556ZM60.6083 45.1258L61.0197 45.222V45.3914L60.6083 45.2952H60.465V45.3914H60.7331V45.5608L59.4943 45.3914L59.2031 45.5608V45.3914L59.4943 45.222L60.0537 45.2952L60.613 45.1258H60.6083ZM59.8318 44.2374H60.1461V44.645H59.8318V44.2374ZM60.7516 41.4027L60.0721 42.0255V42.3873C60.0721 42.8361 60.4188 43.0605 61.1168 43.0605V43.3948L60.7516 43.7062V44.0405L63.1044 44.3748L69.2891 44.0405H69.9178L70.2552 44.3748H70.6204C70.8469 43.2208 71.2998 42.3323 71.9793 41.7095H67.565L65.8686 41.3981L65.5034 41.7095L65.166 41.3981V42.0209L64.1491 41.7095L61.1168 42.0209V41.3981H60.7516V41.4027ZM62.4249 42.63H62.8363V43.3261H63.2477L64.3617 43.0879V43.5459L63.4881 43.784L62.8317 43.5459L62.1753 43.784L61.9581 43.5459V43.3307C62.3787 43.3307 62.5867 43.1704 62.5867 42.8498L62.4157 42.6346L62.4249 42.63ZM63.0813 42.63H63.7099V43.0879H63.4927L63.0813 42.63ZM65.2399 42.63L65.8963 42.8452V43.0879H64.5604V42.8452L65.2399 42.63ZM67.3755 42.63H67.6158V43.3261H66.9595V43.0879L67.3708 42.63H67.3755Z" fill="white"/>
</mask>
<g mask="url(#mask2_1_323)">
<path d="M308.223 -1.47458H-1.93677V50.731H308.223V-1.47458Z" fill="url(#paint2_linear_1_323)"/>
</g>
<mask id="mask3_1_323" style="mask-type:luminance" maskUnits="userSpaceOnUse" x="81" y="-1" width="24" height="46">
<path d="M81.4274 1.41963H81.7926L82.5923 1.90047L82.7633 1.73103L82.9805 1.90047V2.21187H82.5923L82.3981 2.04243L82.1809 2.21187H81.7926C81.7926 1.89131 81.6077 1.73103 81.2333 1.73103H81.0392L81.4274 1.41963ZM83.8542 19.8977L83.8311 44.5305H81.9636H82.5229L81.7233 43.665L81.9636 43.0147H82.2086L82.5229 43.207L82.7402 43.0147H83.0314L83.8311 43.4451V43.207L83.0314 42.3644L82.5229 42.772H82.2086L81.4321 42.1217V41.8836H81.9636V42.3644H82.5229C82.5229 41.9156 82.7818 41.6912 83.2995 41.6912C83.2995 41.4668 82.9343 41.2516 82.2086 41.0409V41.6912H81.7233C81.7233 40.9402 82.2502 40.354 83.2995 39.9373H83.5676L83.2995 40.1525V40.3678L83.5676 40.6059H83.8357V39.4748L83.3041 39.0672L81.4367 39.2824V38.1788L81.7279 38.394H82.7448V38.1788C82.2271 38.1788 81.9682 38.0368 81.9682 37.7483V37.5102L83.8357 38.1834L84.1269 37.9681C83.9327 37.3774 83.5676 37.0797 83.036 37.0797V36.8645C84.1176 36.8645 84.8295 36.7225 85.1715 36.434H85.7308V36.8645C84.6631 36.9469 84.1315 37.1622 84.1315 37.5148C84.6631 37.5148 84.9312 37.6659 84.9312 37.9727L84.3719 38.4032V38.6413L84.6631 38.8336L84.3719 39.0718C84.3719 41.7324 85.9712 43.262 89.1745 43.6604V43.4451C89.9649 43.7336 91.4071 43.8756 93.4918 43.8756H93.7321L95.6227 43.6604V43.8756L98.3129 43.4451L98.5533 43.6604H98.8445C101.673 43.3581 103.088 42.0438 103.088 39.7175L103.379 37.9636H103.647L103.379 37.7483V31.3783L103.088 30.5128L103.379 30.2976V30.0823L103.088 29.1939L103.379 27.8705L103.088 25.9013L102.871 23.3048L83.8542 19.8931V19.8977ZM83.1516 2.35383V2.66524L82.9805 3.14608L83.1516 3.00411H83.9281C83.7987 3.31094 83.4104 3.46206 82.7633 3.46206L82.5923 3.3201V2.83925L83.1516 2.35841V2.35383ZM84.1223 8.60019H85.1669L83.0083 9.1543L82.865 8.93907L84.1269 8.60477L84.1223 8.60019ZM97.4393 7.46907L98.0448 8.06897V8.30711L96.9539 8.16514L96.6858 8.18804L96.4686 8.40327L96.1034 7.78047H95.8353L95.5672 8.04608L94.5226 8.09187L93.1636 7.9957L92.9232 8.21094L91.8555 8.06897L89.988 8.40327L89.7199 8.44907L89.4287 8.23383C85.5136 8.5086 83.6462 9.44281 83.8264 11.0456L83.5121 10.8533L83.0268 11.3341L83.1007 11.9844L83.66 11.9386L83.6369 17.008L83.8542 19.4122L83.8311 21.6012L84.945 21.9859L85.2131 21.7203L85.7956 22.1279V22.3431L85.264 22.366L84.9728 22.1736L84.8018 23.3048L84.2933 23.3277C84.0668 22.3202 83.7663 21.9722 83.3966 22.2927C83.4289 12.424 88.1114 7.48281 97.4393 7.46449V7.46907ZM84.3672 10.5693L84.6585 10.7846V11.0227L83.5676 11.215L83.2995 11.0227V10.7846L84.3672 10.5693ZM83.4197 10.7846L86.2347 11.4578V11.8653L85.9666 11.673H85.1669L84.9266 11.8653H84.6585V11.4578L83.4197 10.7846ZM83.734 19.7969L102.048 22.8239L104.035 22.5354L101.488 21.9813H100.98V21.7432L102.871 21.0929L102.556 18.881V16.4768L102.048 11.4532H102.556V10.78L102.048 10.3495L101.78 10.5648C101.78 8.96197 99.8244 8.16056 95.9093 8.16056L95.6181 8.3758H95.35L93.4825 8.16056L92.4148 8.3758L92.1004 8.16056L90.7923 8.3758H89.7246L89.4565 8.16056H89.1653L88.948 8.81084L88.6568 8.59561H88.3887L87.3209 8.81084V8.59561L87.8525 7.92243L87.5844 7.7301L87.8525 7.49197L85.717 7.92243L85.4489 7.7301L83.7247 19.7923L83.734 19.7969ZM85.1669 14.9656H86.2347L85.7262 15.3961H85.1669V14.9656ZM86.7663 14.9656L87.3256 15.3961V15.8265H86.7663V14.961V14.9656ZM87.2007 2.8301V3.31094L86.8356 2.99954L87.0297 2.8301H87.2007ZM87.0575 17.5622L87.589 18.0201L87.3209 18.2353H87.0528V17.5622H87.0575ZM87.3256 14.5122H87.8571V14.7504L87.3256 15.1579V14.5077V14.5122ZM88.1483 12.5431H88.3887L87.8571 13.001H87.589L88.1483 12.5431ZM88.1714 2.66524H88.5597L88.3887 2.83468L88.5597 3.00411V3.31552H88.1714V2.66524ZM88.6568 14.9702H89.4565V15.4007H88.6568V14.9702ZM89.9927 14.0818H90.552V14.3199L89.9927 14.9702L90.2608 15.1625H89.7292L89.4611 14.3199L89.7292 14.5122H89.9973V14.0818H89.9927ZM90.552 19.7786H90.7969L90.2654 20.2091H89.9973L90.5566 19.7786H90.552ZM90.2608 21.7478L90.7923 22.1782L90.5473 22.4164H90.2561V21.7432L90.2608 21.7478ZM90.6721 1.78571e-06H91.0604V0.141964L90.6721 0.453366V-0.00457764V1.78571e-06ZM91.592 13.6513H92.9278C93.9956 13.6513 94.5272 14.0909 94.5272 14.9748V15.4052L94.2868 15.6205V15.8357L95.3546 16.0509V16.2891H94.5318V16.7195L94.823 18.0155L94.5318 18.2308L94.823 19.3344V19.5496L94.5318 20.4151L95.1142 21.5188L96.1311 21.0883V21.5188L93.4872 21.9767C93.4872 21.6241 92.8585 21.3997 91.5966 21.3036L91.3285 21.5188V21.734L92.1051 22.4072V22.6224H91.5966L90.7969 21.0837H91.0882L91.3285 20.8456H91.5966L91.3285 20.6533V20.1953H91.5966L91.3285 17.553V15.1488L91.8878 13.8528L91.5966 13.6376L91.592 13.6513ZM90.8894 4.11234L91.0604 4.2543H91.2546L91.4718 4.11234H91.6428L91.4718 4.42374H90.8894V4.11234ZM95.1096 22.6407C95.1096 22.9293 95.447 23.0712 96.1265 23.0712V23.5017L95.35 23.7169L95.1096 23.5017V25.4708L95.35 27.44L95.1096 27.6827V27.875L95.35 28.9787L95.1096 29.6519L95.35 31.1677L95.1096 31.3829V31.621L95.35 32.4865V33.1368L95.1096 33.375L95.6181 35.5364L94.8184 38.6367L94.5272 38.3986L94.2868 38.6367H94.0187C93.0804 38.6367 92.4425 38.3391 92.1004 37.7483L92.4148 37.5102L92.1004 37.3179V37.0797L91.8832 29.6565V29.4183L91.592 29.2031L91.8832 28.9879L91.592 27.4492L91.8832 26.5607L91.592 24.6145V23.5108C91.592 23.0621 92.7661 22.7736 95.1096 22.6453V22.6407ZM91.8601 2.35841H92.4194V2.66982H92.2253L91.8601 2.35841ZM92.0311 3.9429H93.0018V4.2543H92.8308L92.6135 4.11234H92.4194L92.2253 4.2543L92.0311 4.11234V3.9429ZM92.8308 0.146544H93.3901V0.457946H93.1959L92.8308 0.146544ZM93.3901 3.6315L93.5842 3.77346H93.7553L93.5842 4.42374H93.1959L93.3901 3.6315ZM93.1959 42.369H93.4872V43.2116H93.1959V42.369ZM93.7553 2.21187L94.1666 2.52327V2.66524L93.7553 2.35383V2.21187ZM93.9725 3.15066L94.5549 3.6315H94.3377L93.9725 3.3201V3.15066ZM94.5549 3.9429H94.9432L94.7259 4.11234V4.2543L94.9432 4.42374L94.5549 3.9429ZM95.9139 2.52327V2.83468L95.6966 3.31552H95.5025V2.83468L95.9139 2.52327ZM95.9139 37.0797H96.4224L96.9539 37.5102H95.9093V37.0797H95.9139ZM95.9139 42.7765L96.4224 43.207V43.4451L95.9139 43.0147V42.7765ZM96.9585 7.95449V8.5086H96.4963V8.31626L96.9585 7.95449ZM96.4963 8.70094L98.0725 8.87038V9.25505H97.8553L96.7413 8.87038L96.5009 9.06271V8.70094H96.4963ZM97.393 7.59729H97.6334L98.2898 7.76673V8.1514L97.393 7.95907V7.59729ZM97.5132 22.8331H99.1126C99.1126 23.2819 99.2836 23.5063 99.621 23.5063L100.98 23.3139V23.7215H99.1126L98.8445 23.5063L98.5533 23.7215H98.0448L97.5132 23.3139V22.8331ZM98.0725 9.42449C98.8167 9.58477 99.1865 9.76795 99.1865 9.9786C98.7335 9.9786 98.3637 9.79542 98.0725 9.42449ZM99.1172 10.1435L99.6256 10.5739L99.3575 10.7892H99.1172V10.1389V10.1435ZM99.1172 21.5325H99.6256V22.1828L99.1172 21.7523V21.5371V21.5325ZM101.253 14.755H101.784L102.052 15.4052H101.784L101.253 14.9748V14.7595V14.755Z" fill="white"/>
</mask>
<g mask="url(#mask3_1_323)">
<path d="M308.223 -2.8484H-1.93677V49.3572H308.223V-2.8484Z" fill="url(#paint3_linear_1_323)"/>
</g>
<mask id="mask4_1_323" style="mask-type:luminance" maskUnits="userSpaceOnUse" x="113" y="7" width="22" height="38">
<path d="M115.466 24.9671V18.4322H115.707L115.975 18.6704V18.2124L115.707 18.0201L115.975 17.782H115.466V15.5472L115.707 15.3091H115.975L115.707 15.5472L115.975 16.6508V17.1088L115.707 17.324H116.215V16.8661H116.483L116.678 17.5621H116.923L117.191 17.3194H117.431C118.092 17.7362 118.425 18.1025 118.425 18.4231H118.642L118.91 18.2079L118.642 18.0155L118.91 17.3194V17.1042H118.425L118.208 17.3194L118.642 16.6463H118.91L119.15 16.8615H119.419L120.172 15.538V15.2999H119.664L119.423 15.538L118.915 15.0801C119.012 14.4893 119.261 14.1917 119.668 14.1917V13.949L119.428 13.7337L119.16 13.949H118.919L118.651 13.7337H118.434V13.949L118.651 14.1917H118.217L117.949 13.949V14.4069H118.434V14.6222C117.773 14.6222 117.44 14.7733 117.44 15.0801H117.2L116.932 14.842H116.229L115.989 15.0801V14.842H115.721L115.48 15.0801L114.972 9.69925V9.46112L115.217 9.24589H114.972V9.05355L115.217 8.81084V8.59561L114.972 8.35748L115.217 8.14224L116.696 8.81542H116.941V7.6843L117.209 7.89953L117.449 7.6843H117.718L117.958 7.89953L117.718 8.13766L118.226 8.59561H118.443C118.443 7.98654 118.688 7.6843 119.169 7.6843H119.437L119.677 7.89953L121.157 7.6843H123.144L122.876 8.35748L123.144 9.24589V11.2654L123.385 18.0201L123.144 18.2124L123.385 18.4277V24.7244L123.653 24.9625L123.385 25.1778H123.893L123.648 26.3089V26.9821H123.14L122.871 26.7668V26.9821L121.66 26.5241H121.42V26.7622L121.66 26.9775V28.7818L121.42 28.9741L121.929 32.1202C121.929 36.1593 122.331 38.1742 123.14 38.1742H124.596L124.864 37.9361L124.596 27.4125C125.113 27.4125 125.372 27.2706 125.372 26.9821H125.617L125.885 27.1744H126.588V25.828L126.371 25.6128H126.588L126.371 24.5092V20.4701H126.856V19.7969H126.371L126.103 14.1963V7.89953L126.588 7.44159H133.789L134.03 7.67972L133.789 7.89495L134.03 9.45654V16.6417L134.298 16.8569H134.03L134.515 18.8765V23.3964L134.298 24.9579L134.515 25.8235V27.6278L134.298 27.8705L134.515 28.0857V28.9741L128.816 27.6278V27.8705L127.36 27.4125L126.366 27.6278V27.8705L132.528 28.9741V31.905L132.768 32.1202H132.528L133.036 34.1626V38.394C133.036 39.9007 132.865 40.6517 132.528 40.6517C132.528 41.8057 131.381 42.7674 129.084 43.5367C124.67 43.7474 122.026 43.9764 121.152 44.2328L117.44 43.7749C115.143 43.7749 113.997 40.9402 113.997 35.2663V35.0281H113.488L113.997 34.355V33.9245L113.756 33.7093H113.997L113.488 29.4321L113.756 29.1893L113.488 28.9741V25.1778L115.476 24.9625L115.466 24.9671ZM113.987 25.3747H114.958V25.1823H113.987V25.3747ZM115.198 9.70841V9.92365H115.707L115.466 10.1618L115.975 10.835L117.431 10.377L116.923 11.2654V11.4807H117.699L117.939 11.2654C117.939 10.835 118.175 10.6151 118.642 10.6151V10.1572C118.013 10.1572 117.204 9.79084 116.215 9.05355H115.975L115.707 9.24589L115.466 9.05355L115.198 9.70383V9.70841ZM116.215 25.8326H117.186V25.6174H116.215V25.8326ZM116.678 18.4322L116.483 19.1283C116.483 19.5771 116.627 19.8015 116.918 19.8015L117.426 19.3436V19.1283H116.918L116.673 19.3436L116.918 18.6704L117.186 18.8856H117.426L117.694 18.6704H117.935L118.203 18.8856V18.2124H116.479L116.673 18.4277L116.678 18.4322ZM117.939 12.4011H118.208L118.425 12.1859L117.939 11.7279H117.699L117.939 12.4011ZM118.425 16.0051V16.2204L117.699 16.4127V16.0051H118.425ZM125.363 27.6369H126.357V27.4217H125.363V27.6369ZM127.596 17.1134L127.355 17.3286V17.5713L127.596 17.7865L128.081 17.3286V17.1134H127.596Z" fill="white"/>
</mask>
<g mask="url(#mask4_1_323)">
<path d="M308.223 -1.01663H-1.93677V51.189H308.223V-1.01663Z" fill="url(#paint4_linear_1_323)"/>
</g>
<mask id="mask5_1_323" style="mask-type:luminance" maskUnits="userSpaceOnUse" x="142" y="6" width="26" height="39">
<path d="M142.688 13.001V13.2895L142.225 13.7704V13.5048L142.688 13.001ZM157.507 7.45075L143.778 7.18514V6.9928H144.19V6.82336L145.184 7.0157L149.746 7.11187L153.943 7.0157L156.319 7.23093L156.536 7.0615L156.679 7.08439L157.502 7.25383V7.44617L157.507 7.45075ZM159.3 8.00486L159.494 9.54355V10.1435H159.254L159.591 16.6325L159.323 18.1712L159.3 18.4597L159.541 18.7711L159.273 19.6366L159.49 21.1524L159.249 21.4867H159.49L159.249 21.7752L159.226 22.0866L159.467 22.7827L159.199 23.0941V23.3597L159.393 25.5212V25.8326L159.152 26.1211L159.393 26.4325L159.37 27.6323C158.917 27.6323 158.519 25.8693 158.182 22.3477L155.852 16.2433L154.179 12.3279V12.6164L154.132 13.5277V13.2163C154.022 11.5493 153.679 10.3312 153.116 9.56187C153.097 10.5877 152.945 11.1006 152.653 11.1006L152.676 8.98486H153.139L152.921 8.07355L145.618 7.93159L145.401 9.15888L145.572 10.9632L145.355 11.2517L145.526 12.7675L145.382 19.9755L145.576 22.714L145.308 23.5795L145.743 24.4908L145.503 26.0295V26.318L145.674 27.5453L145.479 27.8338L145.623 29.9495L145.549 34.442L145.766 34.7534L145.526 35.6921L145.72 37.7575L145.479 38.0689L145.697 38.4032H145.456L145.697 38.6917L145.674 39.603L145.433 40.4914L145.821 44.1687L146.039 43.8802H146.256L146.982 44.1916L150.643 43.8802L151.345 44.2145L152.681 43.926L152.898 44.2374V43.926H152.681L152.926 43.6375V43.0147L152.709 42.7491L152.954 42.4835L152.977 40.3449L152.76 40.0335V39.745L153.005 39.4336L152.787 39.145L153.028 38.8336L152.787 38.5451H153.028L152.787 38.2108L152.81 37.8994L153.051 37.0339L152.834 36.7454H152.589L152.834 36.434L152.857 35.5227L152.639 34.2954L152.884 33.5764L152.69 31.7721L152.958 30.2564H152.713L152.981 29.3679L152.787 27.2522L153.028 26.9408L152.76 27.614L152.783 26.3867C153.171 26.6936 154.909 32.4728 157.997 43.7382L158.311 43.4497H158.722L158.917 43.7611L160.738 43.8573L160.978 43.4955L162.896 43.5184L164.01 43.6375L165.124 44.2374H165.365V43.9718H164.879V43.7062H165.365V43.4177H165.124L164.251 43.6833C164.251 43.7153 164.782 43.5459 165.85 43.1795L165.61 43.468V43.7794L166.044 43.1063L166.067 42.8178L165.873 42.5796L166.067 41.9064L165.924 40.006L166.141 38.4673L165.97 37.2904L166.211 35.7746L166.017 34.2359L165.776 34.5473L165.559 34.5244V33.9245L166.238 33.9474V33.636L165.85 31.8821L166.091 31.5478H166.285L165.919 27.6323L166.188 26.4325L165.97 25.2327L166.238 23.7169L166.044 22.2286L166.312 20.6899L166.095 19.4901H166.335L165.873 18.6017L166.114 17.6904L165.919 15.5747L166.188 14.3245L165.993 12.6896L166.234 12.3782L166.017 12.0897L166.091 7.83542L165.85 8.14682L165.61 8.12393L165.466 7.81252H165.226L163.405 8.10103L163.188 7.76673L162.943 8.07813L159.305 8.00486H159.3ZM147.948 40.3494V42.0072L147.754 42.1766V42.3186L147.948 42.488H148.53V42.3186L148.165 42.0072L148.359 41.8378V41.6683L148.165 41.1646L148.53 40.5143V40.3449H148.359V40.6563H148.165V40.3449H147.948V40.3494ZM167.061 28.0445L167.667 28.5253L166.502 29.1985L166.091 28.8642C165.055 29.1023 164.537 29.3863 164.537 29.7068H164.126V29.3725H163.738C162.818 29.3725 162.356 29.2626 162.356 29.0382L161.168 29.542H160.974V29.2077C160.585 29.2077 160.391 29.0978 160.391 28.8734H160.003C160.003 29.2077 159.864 29.3771 159.591 29.3771L159.397 29.2077V28.8734L160.003 28.3925H160.197L160.974 28.5345L161.773 28.3925L162.356 28.7039H162.573L163.132 28.3925H163.52C163.793 28.3925 163.932 28.6078 163.932 29.0428H164.126C164.884 28.6123 165.54 28.3925 166.091 28.3925V28.5345L167.061 28.0536V28.0445Z" fill="white"/>
</mask>
<g mask="url(#mask5_1_323)">
<path d="M308.223 -1.01663H-1.93677V51.189H308.223V-1.01663Z" fill="url(#paint5_linear_1_323)"/>
</g>
<mask id="mask6_1_323" style="mask-type:luminance" maskUnits="userSpaceOnUse" x="174" y="7" width="24" height="38">
<path d="M177.526 24.4634L178.691 20.5205V20.3052C178.691 18.8169 178.992 17.3515 179.588 15.909V14.1779H180.119L179.828 13.9352V13.7429L181.307 7.83084L187.104 8.06897H187.686V8.49944L187.418 8.28421H187.104L186.813 9.38785V10.0381C187.395 10.0381 187.686 9.67178 187.686 8.93449H188.001L188.874 9.14972V8.93449C189.147 8.35748 189.433 8.06897 189.725 8.06897L192.66 8.28421V8.49944L194.698 24.8664C195.216 24.8664 195.78 27.7743 196.395 33.5902L197.777 43.8527L196.344 43.6604V43.8527L196.076 43.6604H191.467L191.199 43.8527L190.908 43.6604H190.326L190.011 43.8527H189.72L189.161 40.6105H189.475L188.87 39.5297L189.161 39.3145C188.967 37.4232 188.675 36.4798 188.287 36.4798H187.996L187.682 36.695L187.413 36.4798H185.061C184.367 36.4798 183.785 38.8016 183.313 43.4497V43.665L182.463 43.4497L180.11 43.665V43.4497L179.819 43.665H179.579L176.015 43.2345L175.164 43.4497L174.896 43.2345C174.928 40.6242 175.46 39.3191 176.495 39.3191V38.8611H175.936L178.363 26.4142V25.7639H179.796V25.5258L176.935 25.1182V25.3335L175.164 24.8755L177.517 24.4679L177.526 24.4634ZM186.235 17.2553H185.92L184.806 24.8709H185.075L186.531 24.6557L187.113 25.3289L186.822 25.5212H185.389L185.075 25.3289C182.537 25.5075 181.266 25.7227 181.266 25.9792H186.531C186.531 28.4154 184.113 32.0515 179.278 36.8874V37.1255H179.592C183.068 33.9382 184.806 31.9691 184.806 31.2135L185.075 31.4287H186.531L188.592 30.9707V29.89L188.01 29.2397V25.3243H192.087V24.8664L187.113 24.4588V21.8393L186.822 21.6241L187.113 21.386V20.5205L186.822 19.655L187.113 19.4168V19.2245L186.239 17.2553H186.235ZM180.97 44.5076V44.6999L181.21 44.9426H181.478C180.346 44.9426 180.087 44.9426 180.702 44.9426V44.5121H180.97V44.5076ZM183.272 28.1178L183.489 29.1527L183.124 29.8992L183.78 29.945L183.415 30.1831L183.392 30.9524H183.729C183.743 30.6181 184.062 30.4579 184.677 30.4716V30.2335L183.827 29.1527L183.85 28.4063L184.187 28.191L183.85 28.1452L184.238 27.9071L181.548 27.3805L183.272 28.1269V28.1178ZM182.398 11.2746V11.6593H181.913V11.8287L182.181 12.0439H181.719L181.913 11.2746H182.398ZM185.162 28.2139L185.139 28.7177L186.424 28.5253L186.498 27.756L185.842 27.7331L185.162 28.2139ZM192.124 29.2718V29.5145H191.467L191.444 29.7526L191.758 30.0182L192.706 29.8259L192.466 28.5299L193.774 28.6032L193.168 28.0765L191.93 28.0033L192.124 29.2764V29.2718ZM194.088 24.8755H192.655V25.3335H194.694L194.088 24.8755ZM196.076 43.6924L196.367 43.7153L197.07 43.2116H196.732L196.076 43.6924Z" fill="white"/>
</mask>
<g mask="url(#mask6_1_323)">
<path d="M308.223 -0.558685H-1.93677V51.6469H308.223V-0.558685Z" fill="url(#paint6_linear_1_323)"/>
</g>
<mask id="mask7_1_323" style="mask-type:luminance" maskUnits="userSpaceOnUse" x="204" y="7" width="19" height="38">
<path d="M209.384 29.487L208.824 17.782V17.6125L209.018 17.4431L208.824 17.3011V14.9931H204.216L204.022 11.3387V8.06898H205.746L205.94 7.92701V8.06898L206.134 7.92701L206.328 8.06898L207.299 7.92701L207.858 8.06898L208.052 7.92701H209.971L210.165 7.75757V7.92701L210.336 7.75757L210.941 7.92701L212.106 7.75757H212.277L212.471 7.92701L212.665 7.75757H218.05L218.221 7.58813L218.416 7.75757H218.61L218.804 7.58813V7.75757H218.998L219.169 7.58813H221.887V10.519L222.058 11.3341L221.887 12.7034V12.8728L222.058 13.0422V13.2117L221.887 13.3536L222.058 13.5231V14.0268L221.887 14.1688L222.058 14.3382V14.5077H220.334L218.416 14.6771V14.5077H218.05L217.445 14.6771V16.4814L217.662 16.6234H217.445C217.445 17.7591 217.584 18.62 217.856 19.197H217.662L218.05 26.3822L209.393 29.4824L209.384 29.487ZM218.041 25.9059V31.6256L217.847 31.7951H218.041L217.847 32.9262V36.8691L217.653 37.011H217.847L217.653 37.5148L217.436 44.6999L216.488 44.5305H212.85L211.88 44.361L211.685 44.5305L209.961 44.361H208.82V40.6105L209.014 40.441H208.82V40.2716L209.014 40.1296V39.9602L208.82 39.7908H209.014L208.82 39.6213L209.379 29.3359L209.208 29.1665H209.014L208.82 29.3359L209.014 29.8167V29.9862H208.82V29.6519L218.037 25.9013L218.041 25.9059Z" fill="white"/>
</mask>
<g mask="url(#mask7_1_323)">
<path d="M308.223 -0.558685H-1.93677V51.6469H308.223V-0.558685Z" fill="url(#paint7_linear_1_323)"/>
</g>
<mask id="mask8_1_323" style="mask-type:luminance" maskUnits="userSpaceOnUse" x="229" y="7" width="23" height="42">
<path d="M229.694 24.5366V24.7748L229.934 25.0404L230.688 24.8251H230.933V25.0633L230.665 25.3014V25.5395L232.629 24.6511L233.092 25.1549L234.108 24.7244L234.594 25.2281L235.856 25.0358H236.101L237.557 25.3243C239.207 25.2281 240.03 25.0221 240.03 24.7015L238.791 24.3672H238.597L237.358 24.6053L236.364 24.0283V24.271L236.124 24.0283L234.645 24.2207L234.377 24.1978L234.159 23.9596L233.919 23.9367L233.651 24.1749L233.411 23.9367L231.908 24.1062L231.497 23.6024L231.668 19.5908L231.451 18.3636L231.719 18.1483L231.525 16.344L231.816 15.6479L231.404 13.3399L231.696 12.3782L231.816 9.13599L231.622 7.8858L231.89 7.64767L232.81 7.93617H233.05L233.341 7.72094L234.044 7.98655V7.74842L234.335 7.51028L234.575 7.53318L234.793 7.77131L235.81 7.57898L237.266 7.86748C237.266 8.18804 237.025 8.33916 236.54 8.32542L236.494 9.09477L236.734 9.11767L237.751 8.61393L237.774 8.3758L237.529 8.13767L238.037 7.67972H238.546L238.523 8.3987C238.943 7.93617 240.002 7.64767 241.698 7.53318L241.966 7.82169L243.954 7.89496L243.908 8.85664C244.167 8.87496 244.426 8.56814 244.684 7.94533L247.134 8.52234L247.088 9.52982C246.589 9.49776 246.33 9.6443 246.312 9.96028L246.797 9.98318L247.088 9.76795L247.282 10.0061L247.014 11.2792V11.5173H247.476L247.55 9.23673L247.333 8.9986L248.304 9.57561V9.81374L248.013 10.029V10.2671L248.521 10.29L248.761 10.0519L249.418 12.8636L249.177 12.8408L249.372 13.5597V13.7979L249.131 14.0406L249.519 16.3486L248.988 17.3332L249.644 19.3298L249.136 20.0488L249.113 20.2869L249.353 20.5983L249.062 21.2944L249.302 21.56L249.279 22.3293L249.011 22.5446L249.251 22.8102L248.96 24.0604C247.458 24.2023 246.704 24.413 246.704 24.6832L246.681 24.9717L246.922 24.9946L247.19 24.7061L248.401 25.0404L248.932 24.5366L249.173 24.5595L248.641 25.5441H248.882L249.122 25.7822L249.362 25.8051C249.861 25.8235 250.13 25.4937 250.162 24.8206L251.11 25.6357L229.69 24.5321L229.694 24.5366ZM229.911 48.3772L229.888 48.5466L230.351 48.5695L230.374 48.1116H230.203L229.911 48.3772ZM230.179 24.5641L229.939 24.7793L251.114 26.1028C251.049 25.6403 250.393 25.3747 249.15 25.3106L249.127 26.0066H248.886L248.646 25.7914L248.378 25.7685L248.618 26.4417C247.583 27.1286 246.663 27.5316 245.854 27.6415L245.831 27.8567C247.689 27.9392 248.877 29.2443 249.395 31.7722L249.127 31.9874L249.612 32.4179V32.6835L249.344 32.8987L249.829 32.9216C249.811 33.2101 249.552 33.3475 249.053 33.3292V33.7596H249.561L249.002 34.8633H249.27L249.51 35.0785L249.487 35.3441L249.247 35.5593L249.2 36.4249L249.441 36.663H249.2L249.857 38.6596H249.612L249.829 38.8749L249.298 40.1983V40.4136L249.515 40.6517L249.006 41.302V41.5172L249.224 41.7324L248.983 41.9477L248.937 43.0788L249.177 43.294L248.909 43.5322V43.7474L249.15 43.9626L247.62 44.1046L246.917 43.8665L245.9 44.0359L244.953 44.013L244.735 43.7978L244.49 43.9901L241.749 43.871L242.064 35.7013L241.846 35.4861H242.087L241.893 33.9245L242.161 33.2513L241.966 32.1202C241.999 31.2409 241.352 30.7738 240.025 30.728L239.517 30.7051L239.249 31.3554V31.5707L239.494 31.8088L239.47 32.024L239.225 32.2622L239.47 32.285L239.202 32.4774L239.447 32.7155L239.179 33.581L239.156 33.7963L239.401 34.0344L239.133 34.6572L239.11 34.9228L239.35 35.1609L239.11 35.138L239.595 35.596L239.064 36.4615L239.498 38.0231L238.99 38.0002L238.967 38.6505L239.475 38.6734L239.207 38.8886L239.452 39.5847L239.114 40.8807L239.309 43.1383L238.8 43.1154L238.777 43.5459L239.286 43.5688V43.784L238.994 43.9764L237.589 43.7107L236.572 43.8802L235.602 43.6421L234.34 43.8115L233.369 43.5459L231.89 43.7153C231.612 43.7016 231.469 42.9643 231.455 41.5035L231.746 34.6297L231.575 32.395L231.844 32.1797L231.626 31.2684L231.673 30.38L231.913 30.1648C231.733 30.1648 231.612 29.5099 231.548 28.1956L231.788 27.4995L231.594 27.2843L231.617 26.8538L231.857 25.3151L230.452 24.5687L230.184 24.5458L230.179 24.5641ZM233.212 41.1188L233.965 41.1417L233.988 40.7112L233.235 40.6883L233.212 41.1188ZM233.868 18.7711L234.33 19.2291L234.353 18.5788L233.868 18.5559V18.7711ZM235.833 25.5258L237.071 25.5716L237.095 25.0908L236.586 25.0679L236.318 25.2602L236.101 25.045H235.856L235.833 25.5258ZM236.05 32.3766L236.267 32.6148L236.799 32.1843L236.045 32.1614V32.3766H236.05ZM236.318 19.7374L236.295 20.1953L236.535 20.2182L237.312 19.5679L236.318 19.7374ZM237.215 33.7459L237.483 33.984H237.728L237.968 33.7688L237.242 33.0727L237.219 33.7459H237.215ZM237.552 25.7914L237.82 25.8143L238.061 25.5991L237.575 25.0953L237.552 25.7914ZM239.008 13.9215L239.396 15.7258V15.9181L239.128 16.1105L239.105 16.3028L239.373 16.5409L239.105 16.7333L239.568 17.9102C239.549 18.1666 239.309 18.2857 238.842 18.272V18.4643L239.276 18.8719V19.11L238.985 19.3023L238.962 20.0717L239.23 20.2869L238.939 20.4793L238.893 21.8485L240.88 21.9447C241.56 21.7203 241.906 21.2623 241.925 20.5754L241.971 19.5908L241.777 18.5834L242.017 18.4139L241.823 17.0218L242.091 16.4219L241.68 14.8374L241.92 14.6451L241.458 13.8299L240.219 13.7841L239.951 13.9765L239.974 13.7841L239.004 13.9261L239.008 13.9215Z" fill="white"/>
</mask>
<g mask="url(#mask8_1_323)">
<path d="M308.223 1.73103H-1.93677V53.9366H308.223V1.73103Z" fill="url(#paint8_linear_1_323)"/>
</g>
<mask id="mask9_1_323" style="mask-type:luminance" maskUnits="userSpaceOnUse" x="260" y="7" width="11" height="38">
<path d="M262.3 25.0633L264.094 24.8251L262.3 21.702C262.3 19.9572 262.129 18.7711 261.792 18.1437H262.032L261.792 17.4935L261.551 8.31168L261.792 7.6385L262.032 7.87664L265.111 7.6385H268.869V8.09645L269.109 7.88121C269.465 7.88121 269.724 8.77878 269.886 10.5739L269.645 10.7663L269.886 11.4623H269.645L270.154 14.0818L269.886 15.451L270.154 15.6892H269.886L270.154 16.7928V18.5696L269.886 19.7007L270.371 20.3739H270.154L270.371 22.6087V23.4742C270.371 24.3718 270.297 24.8206 270.154 24.8206H269.886L269.668 24.6053L265.3 25.0633V25.4937L269.4 25.0633H269.668C269.96 27.9941 270.038 30.5907 269.909 32.8483L269.28 33.5444C269.927 35.6601 270.131 38.9985 269.886 43.5642L268.601 43.9718V43.7794C267.389 43.7794 266.312 44.0038 265.374 44.4526L265.106 44.2145H263.313L263.044 42.6529H262.804C262.804 43.8527 262.633 44.4572 262.296 44.4572H262.028L261.325 25.9792V25.7364H262.028L262.296 25.9792C262.296 25.709 263.137 25.5487 264.819 25.4983V25.2602H263.803L260.53 25.741L262.3 25.0679V25.0633ZM263.539 15.451H264.584V14.3199H264.098L263.539 15.451ZM265.383 36.6447L265.869 36.2142V35.9715H265.383V36.6447ZM265.869 33.7367H267.496L267.01 33.3063H265.869V33.7367ZM268.027 35.0831H268.268L268.513 34.845L268.027 34.4374V35.0877V35.0831Z" fill="white"/>
</mask>
<g mask="url(#mask9_1_323)">
<path d="M308.223 -1.01663H-1.93674V51.189H308.223V-1.01663Z" fill="url(#paint9_linear_1_323)"/>
</g>
<mask id="mask10_1_323" style="mask-type:luminance" maskUnits="userSpaceOnUse" x="282" y="7" width="24" height="42">
<path d="M290.372 7.73925V7.95448L292.725 7.81252L293.404 8.05065L294.324 7.88121L295.438 7.90411L295.683 8.14224L295.706 7.9499L297.088 8.21551C298.882 8.27962 300.033 9.4657 300.532 11.7737V12.0119L300.291 12.2042L300.703 12.9232L300.486 17.2507L300.68 18.4277L300.388 18.62L300.629 18.9085L300.583 19.339L300.315 19.5542C300.523 19.5679 300.652 20.1953 300.703 21.4272V21.6195L300.486 21.8577L300.629 22.7964L300.509 24.8389L300.703 25.1045L299.515 25.2739H299.321C297.994 25.2281 297 25.0358 296.339 24.6969V24.935C295.581 24.8251 295.207 24.5733 295.225 24.1886L294.329 24.1428L294.088 24.358C294.102 23.9092 293.945 23.6711 293.603 23.6391L293.82 24.8389L293.312 25.2693L293.118 25.2464L293.215 19.0688L293.409 15.8494C293.487 14.3291 292.914 13.5414 291.685 13.4956L290.52 13.4727L290.372 15.9502L290.52 17.1271L290.326 17.3652L290.52 17.6079L290.372 20.0808L290.589 20.319L290.321 20.5571L290.201 23.0804L290.418 23.2956H290.201C290.168 25.5853 290.404 26.7485 290.903 26.7806L292.045 26.8035L292.799 26.1532H293.016L291.971 28.4108H291.731V27.9804H291.537L291.514 28.6307L291.976 28.6535V28.8459H291.514L291.417 29.977L291.634 30.2655L291.417 30.4578L291.634 30.5036L292.239 31.2226C292.059 31.9599 291.592 32.3217 290.834 32.3034L290.155 31.992L289.84 32.7109L290.034 34.3229L289.72 34.9961L289.988 35.2113H289.503L289.937 35.6921L289.646 36.6035L289.914 43.958L287.612 44.3198L285.745 44.0313L282.518 44.3427L282.421 41.6271L282.639 38.1421L282.518 36.5806L282.736 36.3424L282.542 36.1272L282.833 30.3617L282.689 29.2077L282.93 28.9924L282.736 27.6232L282.93 24.6694L282.81 23.0346L283.05 22.8193L282.907 21.8577V21.6653L283.124 21.4501L282.907 21.4272C283.392 20.0808 283.901 19.1054 284.437 18.4964L283.323 18.4506L283.203 20.3007H282.962L283.133 17.0813L283.013 15.9273L283.23 15.6846L283.133 13.5918L283.498 7.89495L286.457 7.99112L286.725 7.79878L286.942 8.03691H287.404L287.645 7.82168L287.622 8.05981L290.386 7.72551L290.372 7.73925ZM285.135 34.1718H285.403L285.62 33.9336L285.426 33.2376H285.232L285.135 34.1763V34.1718ZM285.5 32.3217L285.283 32.5598L285.694 33.0407H285.934L286.008 32.3446L285.5 32.3217ZM285.597 35.0602L285.329 35.3258C285.523 35.9349 285.749 36.2371 286.008 36.2371L285.814 35.0831L285.597 35.0602ZM286.129 37.8491L286.54 37.8949L286.831 37.6567L286.614 36.9606L286.397 36.9378L286.129 37.8491ZM292.896 48.2307L293.113 48.4688V48.6611L292.896 48.4688L292.628 48.6611L291.514 48.6382V48.4001L292.896 48.2307ZM291.805 11.4165L292.507 11.4623V11.0044H292.239L291.805 11.412V11.4165ZM294.232 25.5212L297.019 25.425L298.401 25.4479L299.954 25.7593L299.617 27.8018C299.552 29.084 298.872 30.3663 297.578 31.6485L295.008 32.4636L293.603 32.4178L293.649 31.2638L293.917 31.0211L293.289 30.0594V29.8671H293.723L293.409 27.582C293.617 27.582 293.894 26.895 294.232 25.5166V25.5212ZM293.312 9.4199L293.991 9.4428L294.014 9.01233H293.82L293.312 9.4199ZM298.234 48.1803L299.376 48.2261V48.4642L299.108 48.7023H293.312C293.326 48.2215 294.971 48.0475 298.234 48.1757V48.1803ZM298.891 13.3353L298.817 13.9856L299.302 14.0085L299.519 13.3582L299.593 12.9003L299.325 12.8545L298.891 13.3353ZM304.179 25.6861L305.778 25.7593L305.344 25.2785L304.687 25.2556L304.179 25.6861Z" fill="white"/>
</mask>
<g mask="url(#mask10_1_323)">
<path d="M308.223 -0.100754H-1.93674V52.1049H308.223V-0.100754Z" fill="url(#paint10_linear_1_323)"/>
</g>
</g>
<defs>
<linearGradient id="paint0_linear_1_323" x1="1.49242e-06" y1="24.6286" x2="303.994" y2="24.3287" gradientUnits="userSpaceOnUse">
<stop stop-color="#FFC972"/>
<stop offset="0.37" stop-color="#EBB564"/>
<stop offset="0.7" stop-color="#CBA78C"/>
<stop offset="1" stop-color="#A49CB7"/>
</linearGradient>
<linearGradient id="paint1_linear_1_323" x1="1.49242e-06" y1="22.3389" x2="303.994" y2="22.039" gradientUnits="userSpaceOnUse">
<stop stop-color="#FFC972"/>
<stop offset="0.37" stop-color="#EBB564"/>
<stop offset="0.7" stop-color="#CBA78C"/>
<stop offset="1" stop-color="#A49CB7"/>
</linearGradient>
<linearGradient id="paint2_linear_1_323" x1="-3.47838e-07" y1="24.6286" x2="303.994" y2="24.3287" gradientUnits="userSpaceOnUse">
<stop stop-color="#FFC972"/>
<stop offset="0.37" stop-color="#EBB564"/>
<stop offset="0.7" stop-color="#CBA78C"/>
<stop offset="1" stop-color="#A49CB7"/>
</linearGradient>
<linearGradient id="paint3_linear_1_323" x1="-3.47838e-07" y1="23.2548" x2="303.994" y2="22.9549" gradientUnits="userSpaceOnUse">
<stop stop-color="#FFC972"/>
<stop offset="0.37" stop-color="#EBB564"/>
<stop offset="0.7" stop-color="#CBA78C"/>
<stop offset="1" stop-color="#A49CB7"/>
</linearGradient>
<linearGradient id="paint4_linear_1_323" x1="-3.47838e-07" y1="25.0866" x2="303.994" y2="24.7867" gradientUnits="userSpaceOnUse">
<stop stop-color="#FFC972"/>
<stop offset="0.37" stop-color="#EBB564"/>
<stop offset="0.7" stop-color="#CBA78C"/>
<stop offset="1" stop-color="#A49CB7"/>
</linearGradient>
<linearGradient id="paint5_linear_1_323" x1="-3.47838e-07" y1="25.0866" x2="303.994" y2="24.7867" gradientUnits="userSpaceOnUse">
<stop stop-color="#FFC972"/>
<stop offset="0.37" stop-color="#EBB564"/>
<stop offset="0.7" stop-color="#CBA78C"/>
<stop offset="1" stop-color="#A49CB7"/>
</linearGradient>
<linearGradient id="paint6_linear_1_323" x1="-3.47838e-07" y1="25.5445" x2="303.994" y2="25.2446" gradientUnits="userSpaceOnUse">
<stop stop-color="#FFC972"/>
<stop offset="0.37" stop-color="#EBB564"/>
<stop offset="0.7" stop-color="#CBA78C"/>
<stop offset="1" stop-color="#A49CB7"/>
</linearGradient>
<linearGradient id="paint7_linear_1_323" x1="-3.47838e-07" y1="25.5445" x2="303.994" y2="25.2446" gradientUnits="userSpaceOnUse">
<stop stop-color="#FFC972"/>
<stop offset="0.37" stop-color="#EBB564"/>
<stop offset="0.7" stop-color="#CBA78C"/>
<stop offset="1" stop-color="#A49CB7"/>
</linearGradient>
<linearGradient id="paint8_linear_1_323" x1="-3.38985e-07" y1="27.8343" x2="303.994" y2="27.5343" gradientUnits="userSpaceOnUse">
<stop stop-color="#FFC972"/>
<stop offset="0.37" stop-color="#EBB564"/>
<stop offset="0.7" stop-color="#CBA78C"/>
<stop offset="1" stop-color="#A49CB7"/>
</linearGradient>
<linearGradient id="paint9_linear_1_323" x1="3.01697e-05" y1="25.0866" x2="303.994" y2="24.7867" gradientUnits="userSpaceOnUse">
<stop stop-color="#FFC972"/>
<stop offset="0.37" stop-color="#EBB564"/>
<stop offset="0.7" stop-color="#CBA78C"/>
<stop offset="1" stop-color="#A49CB7"/>
</linearGradient>
<linearGradient id="paint10_linear_1_323" x1="3.01697e-05" y1="26.0025" x2="303.994" y2="25.7025" gradientUnits="userSpaceOnUse">
<stop stop-color="#FFC972"/>
<stop offset="0.37" stop-color="#EBB564"/>
<stop offset="0.7" stop-color="#CBA78C"/>
<stop offset="1" stop-color="#A49CB7"/>
</linearGradient>
<clipPath id="clip0_1_323">
<rect width="306" height="49" fill="white"/>
</clipPath>
</defs>
</svg>
