<svg width="662" height="107" viewBox="0 0 662 107" fill="none" xmlns="http://www.w3.org/2000/svg">
<mask id="mask0_1_64" style="mask-type:luminance" maskUnits="userSpaceOnUse" x="0" y="16" width="40" height="81">
<path d="M0 27.23H0.89V28.8H0V27.23ZM29.02 65.59V66.01H28.55L28.08 65.59H27.66L28.08 64.17L27.66 61.18L28.08 58.98L27.66 55.25H28.55L29.91 56.4L32.17 55.98V56.4L32.59 55.98H33.06L33.53 56.4H33.95L34.42 55.98V56.4L34.89 55.98H35.31L37.15 56.4V55.98L37.57 56.4H39.41V48.21L39.83 47.84L39.41 47.42V47.05L39.83 45.21L39.41 44.84H38.94L35.79 45.21L35.32 44.84H34.9L34.43 45.21H33.96L32.6 44.84L30.34 45.21V44.84L27.66 45.52L28.08 45.2V44.41L27.66 44.04L28.08 43.73V29.51C28.08 29.16 29.15 28.53 31.28 27.62C31.28 28.35 32.17 28.72 33.96 28.72V28.41L39.42 29.51L39.84 29.14V27.62L38.48 26.15V21.74L38.95 17.96L33.07 17.28L31.29 17.65L30.82 17.28H30.35L29.04 17.65L26.78 17.28L26.31 17.65H25.84L25.42 17.28H24.48V17.65L17.66 17.28H11.31L10.89 16.86H10.42L9.95 17.28V21.74L10.42 22.84L9.95 24.68V43.73L9.53 47.82L9.95 49.29L9.53 49.6V50.7H9.95L9.06 65.55L8.64 65.97H7.7L7.28 64.13L6.81 64.44H6.39L5.92 64.13H5.45V65.23L8.18 67.43H10.44V68.22C9.25 68.22 8.66 72.45 8.66 80.92C8.1 80.92 7.79 82.28 7.72 85.01L8.19 85.32L7.72 87.21V90.99L7.3 94.3L7.72 95.4L8.19 94.98H8.66L11.34 95.4L14.07 94.3C14.07 94.86 15.73 95.35 19.05 95.77V95.4L19.57 95.77H24.5L27.23 96.5L27.7 96.13V95.76L27.23 94.66H27.7C30.39 95.88 32.65 96.62 34.47 96.86L37.2 95.76V94.97L36.26 93.55L37.2 87.57V86.89C37.2 85.67 36.29 84.67 34.47 83.9L33.11 84.63L30.85 84.21H27.23L26.81 83.9H26.34L26.81 83.53V83.11C26.81 80.07 27.25 76.34 28.12 71.93L27.7 70.78L29.06 65.53L29.02 65.59ZM5.41 57.61V57.92L6.35 58.55L6.77 57.61H5.41ZM7.25 58.55L7.67 59.49H8.61V58.55H7.25ZM9.51 72.67H9.93V73.3H8.62L9.51 72.67ZM9.51 67.95H10.87V68.32L9.93 68.95L9.51 68.58V67.95ZM10.87 75.19V75.82H9.51V75.45L10.87 75.19ZM9.93 66.74H10.4L11.29 67.37H9.93V66.74ZM11.29 55.41L12.23 56.41L11.76 56.67H11.29L10.4 56.04L11.29 55.41ZM12.65 25.34H13.12L14.01 25.97C12.82 26.39 12.23 26.93 12.23 27.6H11.29L10.87 25.97L11.29 26.34H11.76C11.76 25.68 12.06 25.34 12.65 25.34ZM11.76 33.21H12.23L11.76 33.47V33.84L12.65 34.47V34.73H11.76L10.87 34.1V33.84L11.76 33.21ZM10.87 54.15H12.23L11.29 54.78H10.87V54.15ZM13.55 21.62C14.95 22.04 15.7 22.46 15.81 22.88L12.66 23.51L11.3 22.25V21.99H12.66V22.57H13.13L13.55 21.63V21.62ZM12.66 17.89V18.2L11.77 18.83V18.46L12.66 17.88V17.89ZM11.77 60.13L12.66 60.76V61.02H11.77V60.13ZM13.13 53.89H13.55L15.39 55.15L14.5 56.99H14.03L12.67 56.05V55.79C13.58 55.79 14.03 55.58 14.03 55.16V54.79L13.14 53.9L13.13 53.89ZM15.39 58.87H15.81L16.75 59.5V59.76H15.81L15.39 59.5H14.92L14.5 59.76V59.5L15.39 58.87ZM17.17 38.88V39.19L16.28 39.77H15.81L17.17 38.88ZM17.17 34.1H17.64L17.17 35.78L16.28 35.1V34.73L17.17 34.1ZM20.9 48.9L19.54 50.16L18.54 49.53L18.12 49.79H17.65L17.18 49.53V49.16L20.91 48.9H20.9ZM17.17 76.08H17.64L18.53 76.71V77.08L17.17 76.71V76.08ZM18.11 32.21H18.53V33.21H17.64L18.11 32.21ZM17.64 54.77H18.53V56.66L17.64 56.03V54.77ZM18.11 60.12H18.53L19.95 61.01H19.01L18.12 60.38V60.12H18.11ZM19 41.65H19.52V42.91H19V41.65ZM19 51.36H21.78L20.89 51.99H19.95L19.01 51.36H19ZM20.89 55.77L21.78 56.4L22.67 55.77H23.14V56.66L22.2 57.29C22.2 56.87 21.76 56.66 20.89 56.66L19.53 56.98L19.01 56.66V56.4L20.9 55.77H20.89ZM20.89 59.13H23.15V60.13L22.68 59.76H22.21L20.9 60.39H19.96L20.9 59.13H20.89ZM20.42 38.56H20.89V39.77H20.42V38.56ZM22.68 60.39H23.57L22.21 61.39V61.65H20.43L22.69 60.39H22.68ZM21.32 47.64H22.68L23.15 48.9L22.68 49.16H22.21L21.32 48.53V47.64ZM21.32 70.47H22.21V70.84L21.32 71.47V70.47ZM24.05 71.47H24.47L23.16 72.36V72.05L24.05 71.47ZM27.2 59.14H28.56V60.14C27.51 60.14 26.76 60.35 26.3 60.77L24.94 60.4L24.47 60.77L23.58 59.77L27.2 59.14ZM24.94 46.39L25.83 47.02H24.05L24.94 46.39ZM24.05 75.83H25.41L24.94 76.72L24.05 76.09V75.83ZM25.41 29.13H25.83V29.76H24.47L25.41 29.13ZM24.47 80.19H25.41L26.3 80.82V81.08H25.83L24.47 80.82V80.19ZM24.94 61.67H26.78V62.04H24.94V61.67ZM25.83 54.17H27.19L26.3 54.8H25.83V54.17ZM30.81 55.43L31.7 56.06V56.43H30.81V55.43ZM31.7 94.37V95.47H30.81V95.05L31.7 94.37ZM37.58 40.16H38.47L38.05 40.42V40.79L38.47 41.68L38.05 42.05H38.47C38.19 42.89 37.3 43.31 35.79 43.31V42.94C36.98 42.17 37.57 41.24 37.57 40.16H37.58ZM37.58 45.78H38.47L37.16 47.04L36.69 46.67V46.41L37.58 45.78ZM39.42 33.87L38.95 34.76H39.84V33.87H39.42Z" fill="white"/>
</mask>
<g mask="url(#mask0_1_64)">
<path d="M666.81 -3.22H-4.19V110.78H666.81V-3.22Z" fill="url(#paint0_linear_1_64)"/>
</g>
<mask id="mask1_1_64" style="mask-type:luminance" maskUnits="userSpaceOnUse" x="61" y="16" width="47" height="81">
<path d="M66.19 54.52V40.25H66.71L67.29 40.77V39.77L66.71 39.35L67.29 38.83H66.19V33.95L66.71 33.43H67.29L66.71 33.95L67.29 36.36V37.36L66.71 37.83H67.81V36.83H68.39L68.81 38.35H69.34L69.92 37.82H70.44C71.87 38.73 72.59 39.53 72.59 40.23H73.06L73.64 39.76L73.06 39.34L73.64 37.82V37.35H72.59L72.12 37.82L73.06 36.35H73.64L74.16 36.82H74.74L76.37 33.93V33.41H75.27L74.75 33.93L73.65 32.93C73.86 31.64 74.4 30.99 75.28 30.99V30.46L74.76 29.99L74.18 30.46H73.66L73.08 29.99H72.61V30.46L73.08 30.99H72.14L71.56 30.46V31.46H72.61V31.93C71.18 31.93 70.46 32.26 70.46 32.93H69.94L69.36 32.41H67.84L67.32 32.93V32.41H66.74L66.22 32.93L65.12 21.18V20.66L65.65 20.19H65.12V19.77L65.65 19.24V18.77L65.12 18.25L65.65 17.78L68.85 19.25H69.38V16.78L69.96 17.25L70.48 16.78H71.06L71.58 17.25L71.06 17.77L72.16 18.77H72.63C72.63 17.44 73.16 16.78 74.2 16.78H74.78L75.3 17.25L78.5 16.78H82.8L82.22 18.25L82.8 20.19V24.6L83.32 39.35L82.8 39.77L83.32 40.24V53.99L83.9 54.51L83.32 54.98H84.42L83.89 57.45V58.92H82.79L82.21 58.45V58.92L79.59 57.92H79.07V58.44L79.59 58.91V62.85L79.07 63.27L80.17 70.14C80.17 78.96 81.04 83.36 82.79 83.36H85.94L86.52 82.84L85.94 59.86C87.06 59.86 87.62 59.55 87.62 58.92H88.15L88.73 59.34H90.25V56.4L89.78 55.93H90.25L89.78 53.52V44.7H90.83V43.23H89.78L89.2 31V17.25L90.25 16.25H105.83L106.35 16.77L105.83 17.24L106.35 20.65V36.34L106.93 36.81H106.35L107.4 41.22V51.09L106.93 54.5L107.4 56.39V60.33L106.93 60.86L107.4 61.33V63.27L95.07 60.33V60.86L91.92 59.86L89.77 60.33V60.86L103.1 63.27V69.67L103.62 70.14H103.1L104.2 74.6V83.84C104.2 87.13 103.83 88.77 103.1 88.77C103.1 91.29 100.62 93.39 95.65 95.07C86.1 95.53 80.38 96.03 78.49 96.59L70.46 95.59C65.49 95.59 63.01 89.4 63.01 77.01V76.49H61.91L63.01 75.02V74.08L62.49 73.61H63.01L61.91 64.27L62.49 63.74L61.91 63.27V54.98L66.21 54.51L66.19 54.52ZM62.99 55.41H65.09V54.99H62.99V55.41ZM65.61 21.2V21.67H66.71L66.19 22.19L67.29 23.66L70.44 22.66L69.34 24.6V25.07H71.02L71.54 24.6C71.54 23.66 72.05 23.18 73.06 23.18V22.18C71.7 22.18 69.95 21.38 67.81 19.77H67.29L66.71 20.19L66.19 19.77L65.61 21.19V21.2ZM67.81 56.41H69.91V55.94H67.81V56.41ZM68.81 40.25L68.39 41.77C68.39 42.75 68.7 43.24 69.33 43.24L70.43 42.24V41.77H69.33L68.8 42.24L69.33 40.77L69.91 41.24H70.43L71.01 40.77H71.53L72.11 41.24V39.77H68.38L68.8 40.24L68.81 40.25ZM71.54 27.08H72.12L72.59 26.61L71.54 25.61H71.02L71.54 27.08ZM72.59 34.95V35.42L71.02 35.84V34.95H72.59ZM87.6 60.35H89.75V59.88H87.6V60.35ZM92.43 37.37L91.91 37.84V38.37L92.43 38.84L93.48 37.84V37.37H92.43Z" fill="white"/>
</mask>
<g mask="url(#mask1_1_64)">
<path d="M666.81 -8.22H-4.19V105.78H666.81V-8.22Z" fill="url(#paint1_linear_1_64)"/>
</g>
<mask id="mask2_1_64" style="mask-type:luminance" maskUnits="userSpaceOnUse" x="119" y="16" width="44" height="84">
<path d="M119.52 95.45H120.57L120.94 97.6H120.57L119.52 95.45ZM124.19 97.29H124.77L125.66 97.82H125.4L124.46 97.66V97.82L124.2 97.66H123.89C123.29 97.66 123 97.83 123 98.19H122.69L122.06 97.82V97.66L124.21 97.29H124.19ZM123.25 98.18H123.56L124.45 98.39V98.55H123.24V98.18H123.25ZM123.56 98.76H125.08L124.19 99.28L123.56 98.91V98.75V98.76ZM146.65 17V28.54C148.4 28.54 150.73 26.72 153.63 23.08H154.99V25.44C154.99 26.21 153.49 27.24 150.48 28.54V30.01L146.07 33.84V35.36C147.92 33.3 149.85 32.26 151.84 32.26L152.47 33.1V33.83L151.84 34.62L152.47 35.35C150.72 35.35 149.85 36.12 149.85 37.66H148.59L147.96 36.87H147.28L147.96 37.66V39.23L146.65 36.08V36.87H146.07V36.08L146.65 36.76C145.39 36.76 144.76 38.56 144.76 42.17L145.44 42.9L144.13 52.71L144.76 53.5L143.5 55.02L144.76 56.59L143.5 61.16V72.6L142.19 71.13V64.15L141.56 57.33L142.19 55.02C141.35 55.02 140.93 54.25 140.93 52.71L141.56 52.03L140.93 46.73L141.45 45.94C140.61 40.24 140.02 32.38 139.67 22.38L139.04 20.07L139.67 17.76L139.04 16.97H123.77C124.19 25.12 125.03 29.2 126.29 29.2H126.92V29.99C125.69 29.99 125.08 30.5 125.08 31.51V33.82L126.29 36.13L125.66 36.86L126.92 42.95L125.66 47.62H126.92V48.3L126.29 49.09V49.88H128.28V50.61H126.92V51.34L127.6 55.22L126.92 55.95L128.28 57.47L127.6 58.31L128.28 58.99V62.87C128.28 66.96 128.91 71.81 130.17 77.41L129.54 78.09L130.8 85.8H130.17C130.17 88.84 131.64 90.37 134.58 90.37L137.15 91.16L137.73 90.37H141.56L142.19 91.16H142.92V89.64H144.13L144.76 90.37H145.44L146.65 88.8L147.28 91.16H146.07V92.68H146.65L148.59 91.16L149.27 91.89V91.16L147.28 88.12H150.48V88.8H149.27V90.37H149.85L153 89.64L153.63 90.37L154.99 84.23L154.36 81.19L156.14 75.84L154.99 74.32C155.76 73.41 156.39 69.6 156.88 62.88H156.15L158.2 56.74L157.52 54.43L159.41 42.94H158.78L160.72 33.07L160.04 30.76L160.72 29.97H161.35L160.72 29.18L162.56 16.95L161.93 16.22L161.35 16.95L155 16.22L146.66 16.95L146.65 17ZM125.98 98.02H126.29V98.39H125.4L125.98 98.02ZM126.03 97.81H127.03V98.39H126.72L126.04 97.81H126.03ZM131.12 98.54L132.01 98.75V99.12L131.12 98.91H130.81V99.12H131.39V99.49L128.71 99.12L128.08 99.49V99.12L128.71 98.75L129.92 98.91L131.13 98.54H131.12ZM129.44 96.6H130.12V97.49H129.44V96.6ZM131.43 90.41L129.96 91.77V92.56C129.96 93.54 130.71 94.03 132.22 94.03V94.76L131.43 95.44V96.17L136.52 96.9L149.9 96.17H151.26L151.99 96.9H152.78C153.27 94.38 154.25 92.44 155.72 91.08H146.17L142.5 90.4L141.71 91.08L140.98 90.4V91.76L138.78 91.08L132.22 91.76V90.4H131.43V90.41ZM135.05 93.09H135.94V94.61H136.83L139.24 94.09V95.09L137.35 95.61L135.93 95.09L134.51 95.61L134.04 95.09V94.62C134.95 94.62 135.4 94.27 135.4 93.57L135.03 93.1L135.05 93.09ZM136.47 93.09H137.83V94.09H137.36L136.47 93.09ZM141.14 93.09L142.56 93.56V94.09H139.67V93.56L141.14 93.09ZM145.76 93.09H146.28V94.61H144.86V94.09L145.75 93.09H145.76Z" fill="white"/>
</mask>
<g mask="url(#mask2_1_64)">
<path d="M666.81 -3.22H-4.19V110.78H666.81V-3.22Z" fill="url(#paint2_linear_1_64)"/>
</g>
<mask id="mask3_1_64" style="mask-type:luminance" maskUnits="userSpaceOnUse" x="175" y="-1" width="51" height="99">
<path d="M176.16 3.1H176.95L178.68 4.15L179.05 3.78L179.52 4.15V4.83H178.68L178.26 4.46L177.79 4.83H176.95C176.95 4.13 176.55 3.78 175.74 3.78H175.32L176.16 3.1ZM181.41 43.45L181.36 97.24H177.32H178.53L176.8 95.35L177.32 93.93H177.85L178.53 94.35L179 93.93H179.63L181.36 94.87V94.35L179.63 92.51L178.53 93.4H177.85L176.17 91.98V91.46H177.32V92.51H178.53C178.53 91.53 179.09 91.04 180.21 91.04C180.21 90.55 179.42 90.08 177.85 89.62V91.04H176.8C176.8 89.4 177.94 88.12 180.21 87.21H180.79L180.21 87.68V88.15L180.79 88.67H181.37V86.2L180.22 85.31L176.18 85.78V83.37L176.81 83.84H179.01V83.37C177.89 83.37 177.33 83.06 177.33 82.43V81.91L181.37 83.38L182 82.91C181.58 81.62 180.79 80.97 179.64 80.97V80.5C181.98 80.5 183.52 80.19 184.26 79.56H185.47V80.5C183.16 80.68 182.01 81.15 182.01 81.92C183.16 81.92 183.74 82.25 183.74 82.92L182.53 83.86V84.38L183.16 84.8L182.53 85.32C182.53 91.13 185.99 94.47 192.92 95.34V94.87C194.63 95.5 197.75 95.81 202.26 95.81H202.78L206.87 95.34V95.81L212.69 94.87L213.21 95.34H213.84C219.96 94.68 223.02 91.81 223.02 86.73L223.65 82.9H224.23L223.65 82.43V68.52L223.02 66.63L223.65 66.16V65.69L223.02 63.75L223.65 60.86L223.02 56.56L222.55 50.89L181.41 43.44V43.45ZM179.89 5.14V5.82L179.52 6.87L179.89 6.56H181.57C181.29 7.23 180.45 7.56 179.05 7.56L178.68 7.25V6.2L179.89 5.15V5.14ZM181.99 18.78H184.25L179.58 19.99L179.27 19.52L182 18.79L181.99 18.78ZM210.8 16.31L212.11 17.62V18.14L209.75 17.83L209.17 17.88L208.7 18.35L207.91 16.99H207.33L206.75 17.57L204.49 17.67L201.55 17.46L201.03 17.93L198.72 17.62L194.68 18.35L194.1 18.45L193.47 17.98C185 18.58 180.96 20.62 181.35 24.12L180.67 23.7L179.62 24.75L179.78 26.17L180.99 26.07L180.94 37.14L181.41 42.39L181.36 47.17L183.77 48.01L184.35 47.43L185.61 48.32V48.79L184.46 48.84L183.83 48.42L183.46 50.89L182.36 50.94C181.87 48.74 181.22 47.98 180.42 48.68C180.49 27.13 190.62 16.34 210.8 16.3V16.31ZM182.52 23.08L183.15 23.55V24.07L180.79 24.49L180.21 24.07V23.55L182.52 23.08ZM180.47 23.55L186.56 25.02V25.91L185.98 25.49H184.25L183.73 25.91H183.15V25.02L180.47 23.55ZM181.15 43.23L220.77 49.84L225.07 49.21L219.56 48H218.46V47.48L222.55 46.06L221.87 41.23V35.98L220.77 25.01H221.87V23.54L220.77 22.6L220.19 23.07C220.19 19.57 215.96 17.82 207.49 17.82L206.86 18.29H206.28L202.24 17.82L199.93 18.29L199.25 17.82L196.42 18.29H194.11L193.53 17.82H192.9L192.43 19.24L191.8 18.77H191.22L188.91 19.24V18.77L190.06 17.3L189.48 16.88L190.06 16.36L185.44 17.3L184.86 16.88L181.13 43.22L181.15 43.23ZM184.25 32.68H186.56L185.46 33.62H184.25V32.68ZM187.71 32.68L188.92 33.62V34.56H187.71V32.67V32.68ZM188.65 6.18V7.23L187.86 6.55L188.28 6.18H188.65ZM188.34 38.35L189.49 39.35L188.91 39.82H188.33V38.35H188.34ZM188.92 31.69H190.07V32.21L188.92 33.1V31.68V31.69ZM190.7 27.39H191.22L190.07 28.39H189.49L190.7 27.39ZM190.75 5.82H191.59L191.22 6.19L191.59 6.56V7.24H190.75V5.82ZM191.8 32.69H193.53V33.63H191.8V32.69ZM194.69 30.75H195.9V31.27L194.69 32.69L195.27 33.11H194.12L193.54 31.27L194.12 31.69H194.7V30.75H194.69ZM195.9 43.19H196.43L195.28 44.13H194.7L195.91 43.19H195.9ZM195.27 47.49L196.42 48.43L195.89 48.95H195.26V47.48L195.27 47.49ZM196.16 -2.13645e-06H197V0.309998L196.16 0.989998V-0.0100021V-2.13645e-06ZM198.15 29.81H201.04C203.35 29.81 204.5 30.77 204.5 32.7V33.64L203.98 34.11V34.58L206.29 35.05V35.57H204.51V36.51L205.14 39.34L204.51 39.81L205.14 42.22V42.69L204.51 44.58L205.77 46.99L207.97 46.05V46.99L202.25 47.99C202.25 47.22 200.89 46.73 198.16 46.52L197.58 46.99V47.46L199.26 48.93V49.4H198.16L196.43 46.04H197.06L197.58 45.52H198.16L197.58 45.1V44.1H198.16L197.58 38.33V33.08L198.79 30.25L198.16 29.78L198.15 29.81ZM196.63 8.98L197 9.29H197.42L197.89 8.98H198.26L197.89 9.66H196.63V8.98ZM205.76 49.44C205.76 50.07 206.49 50.38 207.96 50.38V51.32L206.28 51.79L205.76 51.32V55.62L206.28 59.92L205.76 60.45V60.87L206.28 63.28L205.76 64.75L206.28 68.06L205.76 68.53V69.05L206.28 70.94V72.36L205.76 72.88L206.86 77.6L205.13 84.37L204.5 83.85L203.98 84.37H203.4C201.37 84.37 199.99 83.72 199.25 82.43L199.93 81.91L199.25 81.49V80.97L198.78 64.76V64.24L198.15 63.77L198.78 63.3L198.15 59.94L198.78 58L198.15 53.75V51.34C198.15 50.36 200.69 49.73 205.76 49.45V49.44ZM198.73 5.15H199.94V5.83H199.52L198.73 5.15ZM199.1 8.61H201.2V9.29H200.83L200.36 8.98H199.94L199.52 9.29L199.1 8.98V8.61ZM200.83 0.319998H202.04V0.999998H201.62L200.83 0.319998ZM202.04 7.93L202.46 8.24H202.83L202.46 9.66H201.62L202.04 7.93ZM201.62 92.52H202.25V94.36H201.62V92.52ZM202.83 4.83L203.72 5.51V5.82L202.83 5.14V4.83ZM203.3 6.88L204.56 7.93H204.09L203.3 7.25V6.88ZM204.56 8.61H205.4L204.93 8.98V9.29L205.4 9.66L204.56 8.61ZM207.5 5.51V6.19L207.03 7.24H206.61V6.19L207.5 5.51ZM207.5 80.97H208.6L209.75 81.91H207.49V80.97H207.5ZM207.5 93.41L208.6 94.35V94.87L207.5 93.93V93.41ZM209.76 17.37V18.58H208.76V18.16L209.76 17.37ZM208.76 19L212.17 19.37V20.21H211.7L209.29 19.37L208.77 19.79V19H208.76ZM210.7 16.59H211.22L212.64 16.96V17.8L210.7 17.38V16.59ZM210.96 49.86H214.42C214.42 50.84 214.79 51.33 215.52 51.33L218.46 50.91V51.8H214.42L213.84 51.33L213.21 51.8H212.11L210.96 50.91V49.86ZM212.17 20.58C213.78 20.93 214.58 21.33 214.58 21.79C213.6 21.79 212.8 21.39 212.17 20.58ZM214.43 22.15L215.53 23.09L214.95 23.56H214.43V22.14V22.15ZM214.43 47.02H215.53V48.44L214.43 47.5V47.03V47.02ZM219.05 32.22H220.2L220.78 33.64H220.2L219.05 32.7V32.23V32.22Z" fill="white"/>
</mask>
<g mask="url(#mask3_1_64)">
<path d="M666.81 -6.22H-4.19V107.78H666.81V-6.22Z" fill="url(#paint3_linear_1_64)"/>
</g>
<mask id="mask4_1_64" style="mask-type:luminance" maskUnits="userSpaceOnUse" x="245" y="16" width="47" height="81">
<path d="M249.8 54.52V40.25H250.32L250.9 40.77V39.77L250.32 39.35L250.9 38.83H249.8V33.95L250.32 33.43H250.9L250.32 33.95L250.9 36.36V37.36L250.32 37.83H251.42V36.83H252L252.42 38.35H252.95L253.53 37.82H254.05C255.48 38.73 256.2 39.53 256.2 40.23H256.67L257.25 39.76L256.67 39.34L257.25 37.82V37.35H256.2L255.73 37.82L256.67 36.35H257.25L257.77 36.82H258.35L259.98 33.93V33.41H258.88L258.36 33.93L257.26 32.93C257.47 31.64 258.01 30.99 258.89 30.99V30.46L258.37 29.99L257.79 30.46H257.27L256.69 29.99H256.22V30.46L256.69 30.99H255.75L255.17 30.46V31.46H256.22V31.93C254.79 31.93 254.07 32.26 254.07 32.93H253.55L252.97 32.41H251.45L250.93 32.93V32.41H250.35L249.83 32.93L248.73 21.18V20.66L249.26 20.19H248.73V19.77L249.26 19.24V18.77L248.73 18.25L249.26 17.78L252.46 19.25H252.99V16.78L253.57 17.25L254.09 16.78H254.67L255.19 17.25L254.67 17.77L255.77 18.77H256.24C256.24 17.44 256.77 16.78 257.81 16.78H258.39L258.91 17.25L262.11 16.78H266.41L265.83 18.25L266.41 20.19V24.6L266.93 39.35L266.41 39.77L266.93 40.24V53.99L267.51 54.51L266.93 54.98H268.03L267.5 57.45V58.92H266.4L265.82 58.45V58.92L263.2 57.92H262.68V58.44L263.2 58.91V62.85L262.68 63.27L263.78 70.14C263.78 78.96 264.65 83.36 266.4 83.36H269.55L270.13 82.84L269.55 59.86C270.67 59.86 271.23 59.55 271.23 58.92H271.76L272.34 59.34H273.86V56.4L273.39 55.93H273.86L273.39 53.52V44.7H274.44V43.23H273.39L272.81 31V17.25L273.86 16.25H289.44L289.96 16.77L289.44 17.24L289.96 20.65V36.34L290.54 36.81H289.96L291.01 41.22V51.09L290.54 54.5L291.01 56.39V60.33L290.54 60.86L291.01 61.33V63.27L278.68 60.33V60.86L275.53 59.86L273.38 60.33V60.86L286.71 63.27V69.67L287.23 70.14H286.71L287.81 74.6V83.84C287.81 87.13 287.44 88.77 286.71 88.77C286.71 91.29 284.23 93.39 279.26 95.07C269.71 95.53 263.99 96.03 262.1 96.59L254.07 95.59C249.1 95.59 246.62 89.4 246.62 77.01V76.49H245.52L246.62 75.02V74.08L246.1 73.61H246.62L245.52 64.27L246.1 63.74L245.52 63.27V54.98L249.82 54.51L249.8 54.52ZM246.6 55.41H248.7V54.99H246.6V55.41ZM249.22 21.2V21.67H250.32L249.8 22.19L250.9 23.66L254.05 22.66L252.95 24.6V25.07H254.63L255.15 24.6C255.15 23.66 255.66 23.18 256.67 23.18V22.18C255.31 22.18 253.56 21.38 251.42 19.77H250.9L250.32 20.19L249.8 19.77L249.22 21.19V21.2ZM251.42 56.41H253.52V55.94H251.42V56.41ZM252.42 40.25L252 41.77C252 42.75 252.31 43.24 252.94 43.24L254.04 42.24V41.77H252.94L252.41 42.24L252.94 40.77L253.52 41.24H254.04L254.62 40.77H255.14L255.72 41.24V39.77H251.99L252.41 40.24L252.42 40.25ZM255.15 27.08H255.73L256.2 26.61L255.15 25.61H254.63L255.15 27.08ZM256.2 34.95V35.42L254.63 35.84V34.95H256.2ZM271.21 60.35H273.36V59.88H271.21V60.35ZM276.04 37.37L275.52 37.84V38.37L276.04 38.84L277.09 37.84V37.37H276.04Z" fill="white"/>
</mask>
<g mask="url(#mask4_1_64)">
<path d="M666.81 -2.22H-4.19V111.78H666.81V-2.22Z" fill="url(#paint4_linear_1_64)"/>
</g>
<mask id="mask5_1_64" style="mask-type:luminance" maskUnits="userSpaceOnUse" x="307" y="14" width="56" height="83">
<path d="M308.69 28.39V29.02L307.69 30.07V29.49L308.69 28.39ZM340.75 16.27L311.05 15.69V15.27H311.94V14.9L314.09 15.32L323.96 15.53L333.04 15.32L338.18 15.79L338.65 15.42L338.96 15.47L340.74 15.84V16.26L340.75 16.27ZM344.63 17.48L345.05 20.84V22.15H344.53L345.26 36.32L344.68 39.68L344.63 40.31L345.15 40.99L344.57 42.88L345.04 46.19L344.52 46.92H345.04L344.52 47.55L344.47 48.23L344.99 49.75L344.41 50.43V51.01L344.83 55.73V56.41L344.31 57.04L344.83 57.72L344.78 60.34C343.8 60.34 342.94 56.49 342.21 48.8L337.17 35.47L333.55 26.92V27.55L333.45 29.54V28.86C333.21 25.22 332.47 22.56 331.25 20.88C331.21 23.12 330.88 24.24 330.25 24.24L330.3 19.62H331.3L330.83 17.63L315.03 17.32L314.56 20L314.93 23.94L314.46 24.57L314.83 27.88L314.52 43.62L314.94 49.6L314.36 51.49L315.3 53.48L314.78 56.84V57.47L315.15 60.15L314.73 60.78L315.04 65.4L314.88 75.21L315.35 75.89L314.83 77.94L315.25 82.45L314.73 83.13L315.2 83.86H314.68L315.2 84.49L315.15 86.48L314.63 88.42L315.47 96.45L315.94 95.82H316.41L317.98 96.5L325.9 95.82L327.42 96.55L330.31 95.92L330.78 96.6V95.92H330.31L330.84 95.29V93.93L330.37 93.35L330.9 92.77L330.95 88.1L330.48 87.42V86.79L331.01 86.11L330.54 85.48L331.06 84.8L330.54 84.17H331.06L330.54 83.44L330.59 82.76L331.11 80.87L330.64 80.24H330.11L330.64 79.56L330.69 77.57L330.22 74.89L330.75 73.32L330.33 69.38L330.91 66.07H330.38L330.96 64.13L330.54 59.51L331.06 58.83L330.48 60.3L330.53 57.62C331.37 58.29 335.13 70.91 341.81 95.51L342.49 94.88H343.38L343.8 95.56L347.74 95.77L348.26 94.98L352.41 95.03L354.82 95.29L357.23 96.6H357.75V96.02H356.7V95.44H357.75V94.81H357.23L355.34 95.39C355.34 95.46 356.49 95.09 358.8 94.29L358.28 94.92V95.6L359.22 94.13L359.27 93.5L358.85 92.98L359.27 91.51L358.96 87.36L359.43 84L359.06 81.43L359.58 78.12L359.16 74.76L358.64 75.44L358.17 75.39V74.08L359.64 74.13V73.45L358.8 69.62L359.32 68.89H359.74L358.95 60.34L359.53 57.72L359.06 55.1L359.64 51.79L359.22 48.54L359.8 45.18L359.33 42.56H359.85L358.85 40.62L359.37 38.63L358.95 34.01L359.53 31.28L359.11 27.71L359.63 27.03L359.16 26.4L359.32 17.11L358.8 17.79L358.28 17.74L357.97 17.06H357.45L353.51 17.69L353.04 16.96L352.51 17.64L344.64 17.48H344.63ZM320.07 88.11V91.73L319.65 92.1V92.41L320.07 92.78H321.33V92.41L320.54 91.73L320.96 91.36V90.99L320.54 89.89L321.33 88.47V88.1H320.96V88.78H320.54V88.1H320.07V88.11ZM361.42 61.24L362.73 62.29L360.21 63.76L359.32 63.03C357.08 63.55 355.96 64.17 355.96 64.87H355.07V64.14H354.23C352.24 64.14 351.24 63.9 351.24 63.41L348.67 64.51H348.25V63.78C347.41 63.78 346.99 63.54 346.99 63.05H346.15C346.15 63.78 345.85 64.15 345.26 64.15L344.84 63.78V63.05L346.15 62H346.57L348.25 62.31L349.98 62L351.24 62.68H351.71L352.92 62H353.76C354.35 62 354.65 62.47 354.65 63.42H355.07C356.71 62.48 358.13 62 359.32 62V62.31L361.42 61.26V61.24Z" fill="white"/>
</mask>
<g mask="url(#mask5_1_64)">
<path d="M666.81 -2.22H-4.19V111.78H666.81V-2.22Z" fill="url(#paint5_linear_1_64)"/>
</g>
<mask id="mask6_1_64" style="mask-type:luminance" maskUnits="userSpaceOnUse" x="378" y="17" width="50" height="82">
<path d="M384.06 53.42L386.58 44.81V44.34C386.58 41.09 387.23 37.89 388.52 34.74V30.96H389.67L389.04 30.43V30.01L392.24 17.1L404.78 17.62H406.04V18.56L405.46 18.09H404.78L404.15 20.5V21.92C405.41 21.92 406.04 21.12 406.04 19.51H406.72L408.61 19.98V19.51C409.2 18.25 409.82 17.62 410.45 17.62L416.8 18.09V18.56L421.21 54.3C422.33 54.3 423.55 60.65 424.88 73.35L427.87 95.76L424.77 95.34V95.76L424.19 95.34H414.22L413.64 95.76L413.01 95.34H411.75L411.07 95.76H410.44L409.23 88.68H409.91L408.6 86.32L409.23 85.85C408.81 81.72 408.18 79.66 407.34 79.66H406.71L406.03 80.13L405.45 79.66H400.36C398.86 79.66 397.6 84.73 396.58 94.88V95.35L394.74 94.88L389.65 95.35V94.88L389.02 95.35H388.5L380.79 94.41L378.95 94.88L378.37 94.41C378.44 88.71 379.59 85.86 381.83 85.86V84.86H380.62L385.87 57.68V56.26H388.97V55.74L382.78 54.85V55.32L378.95 54.32L384.04 53.43L384.06 53.42ZM402.9 37.68H402.22L399.81 54.31H400.39L403.54 53.84L404.8 55.31L404.17 55.73H401.07L400.39 55.31C394.9 55.7 392.15 56.17 392.15 56.73H403.54C403.54 62.05 398.31 69.99 387.85 80.55V81.07H388.53C396.05 74.11 399.81 69.81 399.81 68.16L400.39 68.63H403.54L408 67.63V65.27L406.74 63.85V55.3H415.56V54.3L404.8 53.41V47.69L404.17 47.22L404.8 46.7V44.81L404.17 42.92L404.8 42.4V41.98L402.91 37.68H402.9ZM391.51 97.19V97.61L392.03 98.14H392.61C390.16 98.14 389.6 98.14 390.93 98.14V97.2H391.51V97.19ZM396.49 61.4L396.96 63.66L396.17 65.29L397.59 65.39L396.8 65.91L396.75 67.59H397.48C397.51 66.86 398.2 66.51 399.53 66.54V66.02L397.69 63.66L397.74 62.03L398.47 61.56L397.74 61.46L398.58 60.94L392.76 59.79L396.49 61.42V61.4ZM394.6 24.62V25.46H393.55V25.83L394.13 26.3H393.13L393.55 24.62H394.6ZM400.58 61.61L400.53 62.71L403.31 62.29L403.47 60.61L402.05 60.56L400.58 61.61ZM415.64 63.92V64.45H414.22L414.17 64.97L414.85 65.55L416.9 65.13L416.38 62.3L419.21 62.46L417.9 61.31L415.22 61.15L415.64 63.93V63.92ZM419.89 54.32H416.79V55.32H421.2L419.89 54.32ZM424.19 95.41L424.82 95.46L426.34 94.36H425.61L424.19 95.41Z" fill="white"/>
</mask>
<g mask="url(#mask6_1_64)">
<path d="M666.81 -1.22H-4.19V112.78H666.81V-1.22Z" fill="url(#paint6_linear_1_64)"/>
</g>
<mask id="mask7_1_64" style="mask-type:luminance" maskUnits="userSpaceOnUse" x="441" y="16" width="40" height="82">
<path d="M452.98 64.39L451.77 38.83V38.46L452.19 38.09L451.77 37.78V32.74H441.8L441.38 24.76V17.62H445.11L445.53 17.31V17.62L445.95 17.31L446.37 17.62L448.47 17.31L449.68 17.62L450.1 17.31H454.25L454.67 16.94V17.31L455.04 16.94L456.35 17.31L458.87 16.94H459.24L459.66 17.31L460.08 16.94H471.73L472.1 16.57L472.52 16.94H472.94L473.36 16.57V16.94H473.78L474.15 16.57H480.03V22.97L480.4 24.75L480.03 27.74V28.11L480.4 28.48V28.85L480.03 29.16L480.4 29.53V30.63L480.03 30.94L480.4 31.31V31.68H476.67L472.52 32.05V31.68H471.73L470.42 32.05V35.99L470.89 36.3H470.42C470.42 38.78 470.72 40.66 471.31 41.92H470.89L471.73 57.61L453 64.38L452.98 64.39ZM471.71 56.57V69.06L471.29 69.43H471.71L471.29 71.9V80.51L470.87 80.82H471.29L470.87 81.92L470.4 97.61L468.35 97.24H460.48L458.38 96.87L457.96 97.24L454.23 96.87H451.76V88.68L452.18 88.31H451.76V87.94L452.18 87.63V87.26L451.76 86.89H452.18L451.76 86.52L452.97 64.06L452.6 63.69H452.18L451.76 64.06L452.18 65.11V65.48H451.76V64.75L471.7 56.56L471.71 56.57Z" fill="white"/>
</mask>
<g mask="url(#mask7_1_64)">
<path d="M666.81 -1.22H-4.19V112.78H666.81V-1.22Z" fill="url(#paint7_linear_1_64)"/>
</g>
<mask id="mask8_1_64" style="mask-type:luminance" maskUnits="userSpaceOnUse" x="496" y="16" width="48" height="91">
<path d="M496.92 53.58V54.1L497.44 54.68L499.07 54.21H499.6V54.73L499.02 55.25V55.77L503.27 53.83L504.27 54.93L506.47 53.99L507.52 55.09L510.25 54.67H510.78L513.93 55.3C517.5 55.09 519.28 54.64 519.28 53.94L516.6 53.21H516.18L513.5 53.73L511.35 52.47V53L510.83 52.47L507.63 52.89L507.05 52.84L506.58 52.32L506.06 52.27L505.48 52.79L504.96 52.27L501.71 52.64L500.82 51.54L501.19 42.78L500.72 40.1L501.3 39.63L500.88 35.69L501.51 34.17L500.62 29.13L501.25 27.03L501.51 19.95L501.09 17.22L501.67 16.7L503.66 17.33H504.18L504.81 16.86L506.33 17.44V16.92L506.96 16.4L507.48 16.45L507.95 16.97L510.15 16.55L513.3 17.18C513.3 17.88 512.78 18.21 511.73 18.18L511.63 19.86L512.15 19.91L514.35 18.81L514.4 18.29L513.87 17.77L514.97 16.77H516.07L516.02 18.34C516.93 17.33 519.22 16.7 522.89 16.45L523.47 17.08L527.77 17.24L527.67 19.34C528.23 19.38 528.79 18.71 529.35 17.35L534.65 18.61L534.55 20.81C533.47 20.74 532.91 21.06 532.87 21.75L533.92 21.8L534.55 21.33L534.97 21.85L534.39 24.63V25.15H535.39L535.55 20.17L535.08 19.65L537.18 20.91V21.43L536.55 21.9V22.42L537.65 22.47L538.17 21.95L539.59 28.09L539.07 28.04L539.49 29.61V30.13L538.97 30.66L539.81 35.7L538.66 37.85L540.08 42.21L538.98 43.78L538.93 44.3L539.45 44.98L538.82 46.5L539.34 47.08L539.29 48.76L538.71 49.23L539.23 49.81L538.6 52.54C535.35 52.85 533.72 53.31 533.72 53.9L533.67 54.53L534.19 54.58L534.77 53.95L537.39 54.68L538.54 53.58L539.06 53.63L537.91 55.78H538.43L538.95 56.3L539.47 56.35C540.55 56.39 541.13 55.67 541.2 54.2L543.25 55.98L496.91 53.57L496.92 53.58ZM497.39 105.64L497.34 106.01L498.34 106.06L498.39 105.06H498.02L497.39 105.64ZM497.97 53.64L497.45 54.11L543.26 57C543.12 55.99 541.7 55.41 539.01 55.27L538.96 56.79H538.44L537.92 56.32L537.34 56.27L537.86 57.74C535.62 59.24 533.63 60.12 531.88 60.36L531.83 60.83C535.85 61.01 538.42 63.86 539.54 69.38L538.96 69.85L540.01 70.79V71.37L539.43 71.84L540.48 71.89C540.44 72.52 539.88 72.82 538.8 72.78V73.72H539.9L538.69 76.13H539.27L539.79 76.6L539.74 77.18L539.22 77.65L539.12 79.54L539.64 80.06H539.12L540.54 84.42H540.01L540.48 84.89L539.33 87.78V88.25L539.8 88.77L538.7 90.19V90.66L539.17 91.13L538.65 91.6L538.55 94.07L539.07 94.54L538.49 95.06V95.53L539.01 96L535.7 96.31L534.18 95.79L531.98 96.16L529.93 96.11L529.46 95.64L528.93 96.06L523 95.8L523.68 77.96L523.21 77.49H523.73L523.31 74.08L523.89 72.61L523.47 70.14C523.54 68.22 522.14 67.2 519.27 67.1L518.17 67.05L517.59 68.47V68.94L518.12 69.46L518.07 69.93L517.54 70.45L518.07 70.5L517.49 70.92L518.02 71.44L517.44 73.33L517.39 73.8L517.92 74.32L517.34 75.68L517.29 76.26L517.81 76.78L517.29 76.73L518.34 77.73L517.19 79.62L518.13 83.03L517.03 82.98L516.98 84.4L518.08 84.45L517.5 84.92L518.03 86.44L517.3 89.27L517.72 94.2L516.62 94.15L516.57 95.09L517.67 95.14V95.61L517.04 96.03L514 95.45L511.8 95.82L509.7 95.3L506.97 95.67L504.87 95.09L501.67 95.46C501.07 95.43 500.76 93.82 500.73 90.63L501.36 75.62L500.99 70.74L501.57 70.27L501.1 68.28L501.2 66.34L501.72 65.87C501.33 65.87 501.07 64.44 500.93 61.57L501.45 60.05L501.03 59.58L501.08 58.64L501.6 55.28L498.56 53.65L497.98 53.6L497.97 53.64ZM504.53 89.79L506.16 89.84L506.21 88.9L504.58 88.85L504.53 89.79ZM505.95 40.99L506.95 41.99L507 40.57L505.95 40.52V40.99ZM510.2 55.74L512.88 55.84L512.93 54.79L511.83 54.74L511.25 55.16L510.78 54.69H510.25L510.2 55.74ZM510.67 70.7L511.14 71.22L512.29 70.28L510.66 70.23V70.7H510.67ZM511.25 43.1L511.2 44.1L511.72 44.15L513.4 42.73L511.25 43.1ZM513.19 73.69L513.77 74.21H514.3L514.82 73.74L513.25 72.22L513.2 73.69H513.19ZM513.92 56.32L514.5 56.37L515.02 55.9L513.97 54.8L513.92 56.32ZM517.07 30.4L517.91 34.34V34.76L517.33 35.18L517.28 35.6L517.86 36.12L517.28 36.54L518.28 39.11C518.24 39.67 517.72 39.93 516.71 39.9V40.32L517.65 41.21V41.73L517.02 42.15L516.97 43.83L517.55 44.3L516.92 44.72L516.82 47.71L521.12 47.92C522.59 47.43 523.34 46.43 523.38 44.93L523.48 42.78L523.06 40.58L523.58 40.21L523.16 37.17L523.74 35.86L522.85 32.4L523.37 31.98L522.37 30.2L519.69 30.1L519.11 30.52L519.16 30.1L517.06 30.41L517.07 30.4Z" fill="white"/>
</mask>
<g mask="url(#mask8_1_64)">
<path d="M666.81 3.77999H-4.19V117.78H666.81V3.77999Z" fill="url(#paint8_linear_1_64)"/>
</g>
<mask id="mask9_1_64" style="mask-type:luminance" maskUnits="userSpaceOnUse" x="563" y="16" width="22" height="82">
<path d="M567.46 54.73L571.34 54.21L567.46 47.39C567.46 43.58 567.09 40.99 566.36 39.62H566.88L566.36 38.2L565.84 18.15L566.36 16.68L566.88 17.2L573.54 16.68H581.67V17.68L582.19 17.21C582.96 17.21 583.52 19.17 583.87 23.09L583.35 23.51L583.87 25.03H583.35L584.45 30.75L583.87 33.74L584.45 34.26H583.87L584.45 36.67V40.55L583.87 43.02L584.92 44.49H584.45L584.92 49.37V51.26C584.92 53.22 584.76 54.2 584.45 54.2H583.87L583.4 53.73L573.95 54.73V55.67L582.82 54.73H583.4C584.03 61.13 584.2 66.8 583.92 71.73L582.56 73.25C583.96 77.87 584.4 85.16 583.87 95.13L581.09 96.02V95.6C578.47 95.6 576.14 96.09 574.11 97.07L573.53 96.55H569.65L569.07 93.14H568.55C568.55 95.76 568.18 97.08 567.45 97.08H566.87L565.35 56.73V56.2H566.87L567.45 56.73C567.45 56.14 569.27 55.79 572.91 55.68V55.16H570.71L563.63 56.21L567.46 54.74V54.73ZM570.14 33.74H572.4V31.27H571.35L570.14 33.74ZM574.13 80.02L575.18 79.08V78.55H574.13V80.02ZM575.18 73.67H578.7L577.65 72.73H575.18V73.67ZM579.85 76.61H580.37L580.9 76.09L579.85 75.2V76.62V76.61Z" fill="white"/>
</mask>
<g mask="url(#mask9_1_64)">
<path d="M666.81 -2.22H-4.19V111.78H666.81V-2.22Z" fill="url(#paint9_linear_1_64)"/>
</g>
<mask id="mask10_1_64" style="mask-type:luminance" maskUnits="userSpaceOnUse" x="610" y="16" width="52" height="91">
<path d="M628.19 16.9V17.37L633.28 17.06L634.75 17.58L636.74 17.21L639.15 17.26L639.68 17.78L639.73 17.36L642.72 17.94C646.6 18.08 649.09 20.67 650.17 25.71V26.23L649.65 26.65L650.54 28.22L650.07 37.67L650.49 40.24L649.86 40.66L650.38 41.29L650.28 42.23L649.7 42.7C650.15 42.73 650.43 44.1 650.54 46.79V47.21L650.07 47.73L650.38 49.78L650.12 54.24L650.54 54.82L647.97 55.19H647.55C644.68 55.09 642.53 54.67 641.1 53.93V54.45C639.46 54.21 638.65 53.66 638.69 52.82L636.75 52.72L636.23 53.19C636.26 52.21 635.92 51.69 635.18 51.62L635.65 54.24L634.55 55.18L634.13 55.13L634.34 41.64L634.76 34.61C634.93 31.29 633.69 29.57 631.03 29.47L628.51 29.42L628.19 34.83L628.51 37.4L628.09 37.92L628.51 38.45L628.19 43.85L628.66 44.37L628.08 44.89L627.82 50.4L628.29 50.87H627.82C627.75 55.87 628.26 58.41 629.34 58.48L631.81 58.53L633.44 57.11H633.91L631.65 62.04H631.13V61.1H630.71L630.66 62.52L631.66 62.57V62.99H630.66L630.45 65.46L630.92 66.09L630.45 66.51L630.92 66.61L632.23 68.18C631.84 69.79 630.83 70.58 629.19 70.54L627.72 69.86L627.04 71.43L627.46 74.95L626.78 76.42L627.36 76.89H626.31L627.25 77.94L626.62 79.93L627.2 95.99L622.22 96.78L618.18 96.15L611.2 96.83L610.99 90.9L611.46 83.29L611.2 79.88L611.67 79.36L611.25 78.89L611.88 66.3L611.57 63.78L612.09 63.31L611.67 60.32L612.09 53.87L611.83 50.3L612.35 49.83L612.04 47.73V47.31L612.51 46.84L612.04 46.79C613.09 43.85 614.19 41.72 615.35 40.39L612.94 40.29L612.68 44.33H612.16L612.53 37.3L612.27 34.78L612.74 34.25L612.53 29.68L613.32 17.24L619.72 17.45L620.3 17.03L620.77 17.55H621.77L622.29 17.08L622.24 17.6L628.22 16.87L628.19 16.9ZM616.86 74.62H617.44L617.91 74.1L617.49 72.58H617.07L616.86 74.63V74.62ZM617.65 70.58L617.18 71.1L618.07 72.15H618.59L618.75 70.63L617.65 70.58ZM617.86 76.56L617.28 77.14C617.7 78.47 618.19 79.13 618.75 79.13L618.33 76.61L617.86 76.56ZM619.01 82.65L619.9 82.75L620.53 82.23L620.06 80.71L619.59 80.66L619.01 82.65ZM633.65 105.32L634.12 105.84V106.26L633.65 105.84L633.07 106.26L630.66 106.21V105.69L633.65 105.32ZM631.29 24.93L632.81 25.03V24.03H632.23L631.29 24.92V24.93ZM636.54 55.73L642.57 55.52L645.56 55.57L648.92 56.25L648.19 60.71C648.05 63.51 646.58 66.31 643.78 69.11L638.22 70.89L635.18 70.79L635.28 68.27L635.86 67.74L634.5 65.64V65.22H635.44L634.76 60.23C635.21 60.23 635.81 58.73 636.54 55.72V55.73ZM634.55 20.57L636.02 20.62L636.07 19.68H635.65L634.55 20.57ZM645.2 105.21L647.67 105.31V105.83L647.09 106.35H634.55C634.58 105.3 638.14 104.92 645.2 105.2V105.21ZM646.62 29.12L646.46 30.54L647.51 30.59L647.98 29.17L648.14 28.17L647.56 28.07L646.62 29.12ZM658.06 56.09L661.52 56.25L660.58 55.2L659.16 55.15L658.06 56.09Z" fill="white"/>
</mask>
<g mask="url(#mask10_1_64)">
<path d="M666.81 -0.220001H-4.19V113.78H666.81V-0.220001Z" fill="url(#paint10_linear_1_64)"/>
</g>
<defs>
<linearGradient id="paint0_linear_1_64" x1="3.70201e-06" y1="53.7809" x2="657.661" y2="53.1381" gradientUnits="userSpaceOnUse">
<stop stop-color="#ABE52F"/>
<stop offset="0.37" stop-color="#86D35A"/>
<stop offset="0.7" stop-color="#62C285"/>
<stop offset="1" stop-color="#3EB1B1"/>
</linearGradient>
<linearGradient id="paint1_linear_1_64" x1="3.70201e-06" y1="48.7809" x2="657.661" y2="48.1381" gradientUnits="userSpaceOnUse">
<stop stop-color="#ABE52F"/>
<stop offset="0.37" stop-color="#86D35A"/>
<stop offset="0.7" stop-color="#62C285"/>
<stop offset="1" stop-color="#3EB1B1"/>
</linearGradient>
<linearGradient id="paint2_linear_1_64" x1="-1.12683e-07" y1="53.7809" x2="657.661" y2="53.1381" gradientUnits="userSpaceOnUse">
<stop stop-color="#ABE52F"/>
<stop offset="0.37" stop-color="#86D35A"/>
<stop offset="0.7" stop-color="#62C285"/>
<stop offset="1" stop-color="#3EB1B1"/>
</linearGradient>
<linearGradient id="paint3_linear_1_64" x1="-1.12683e-07" y1="50.7809" x2="657.661" y2="50.1381" gradientUnits="userSpaceOnUse">
<stop stop-color="#ABE52F"/>
<stop offset="0.37" stop-color="#86D35A"/>
<stop offset="0.7" stop-color="#62C285"/>
<stop offset="1" stop-color="#3EB1B1"/>
</linearGradient>
<linearGradient id="paint4_linear_1_64" x1="-1.12683e-07" y1="54.7809" x2="657.661" y2="54.1381" gradientUnits="userSpaceOnUse">
<stop stop-color="#ABE52F"/>
<stop offset="0.37" stop-color="#86D35A"/>
<stop offset="0.7" stop-color="#62C285"/>
<stop offset="1" stop-color="#3EB1B1"/>
</linearGradient>
<linearGradient id="paint5_linear_1_64" x1="-1.12683e-07" y1="54.7809" x2="657.661" y2="54.1381" gradientUnits="userSpaceOnUse">
<stop stop-color="#ABE52F"/>
<stop offset="0.37" stop-color="#86D35A"/>
<stop offset="0.7" stop-color="#62C285"/>
<stop offset="1" stop-color="#3EB1B1"/>
</linearGradient>
<linearGradient id="paint6_linear_1_64" x1="-1.12683e-07" y1="55.7809" x2="657.661" y2="55.1381" gradientUnits="userSpaceOnUse">
<stop stop-color="#ABE52F"/>
<stop offset="0.37" stop-color="#86D35A"/>
<stop offset="0.7" stop-color="#62C285"/>
<stop offset="1" stop-color="#3EB1B1"/>
</linearGradient>
<linearGradient id="paint7_linear_1_64" x1="-1.12683e-07" y1="55.7809" x2="657.661" y2="55.1381" gradientUnits="userSpaceOnUse">
<stop stop-color="#ABE52F"/>
<stop offset="0.37" stop-color="#86D35A"/>
<stop offset="0.7" stop-color="#62C285"/>
<stop offset="1" stop-color="#3EB1B1"/>
</linearGradient>
<linearGradient id="paint8_linear_1_64" x1="-1.12683e-07" y1="60.7809" x2="657.661" y2="60.1381" gradientUnits="userSpaceOnUse">
<stop stop-color="#ABE52F"/>
<stop offset="0.37" stop-color="#86D35A"/>
<stop offset="0.7" stop-color="#62C285"/>
<stop offset="1" stop-color="#3EB1B1"/>
</linearGradient>
<linearGradient id="paint9_linear_1_64" x1="-1.12683e-07" y1="54.7809" x2="657.661" y2="54.1381" gradientUnits="userSpaceOnUse">
<stop stop-color="#ABE52F"/>
<stop offset="0.37" stop-color="#86D35A"/>
<stop offset="0.7" stop-color="#62C285"/>
<stop offset="1" stop-color="#3EB1B1"/>
</linearGradient>
<linearGradient id="paint10_linear_1_64" x1="-1.12683e-07" y1="56.7809" x2="657.661" y2="56.1381" gradientUnits="userSpaceOnUse">
<stop stop-color="#ABE52F"/>
<stop offset="0.37" stop-color="#86D35A"/>
<stop offset="0.7" stop-color="#62C285"/>
<stop offset="1" stop-color="#3EB1B1"/>
</linearGradient>
</defs>
</svg>
